<?xml version="1.0" encoding="utf-8"?>
<!-- Generator: Adobe Illustrator 16.0.0, SVG Export Plug-In . SVG Version: 6.00 Build 0)  -->
<!DOCTYPE svg PUBLIC "-//W3C//DTD SVG 1.1//EN" "http://www.w3.org/Graphics/SVG/1.1/DTD/svg11.dtd">
<svg version="1.1" id="Layer_1" xmlns="http://www.w3.org/2000/svg" xmlns:xlink="http://www.w3.org/1999/xlink" x="0px" y="0px"
	 width="200px" height="580px" viewBox="0 0 200 580" enable-background="new 0 0 200 580" xml:space="preserve">
<g enable-background="new    ">
	<path fill="#1885BB" d="M17.273,23.231l-0.087,1.477c0,0-2.288-0.289-3.388-0.289c-3.476,0-4.489,1.535-4.489,5.705
		c0,4.547,0.695,6.227,4.489,6.227c1.101,0,3.446-0.261,3.446-0.261l0.058,1.478c0,0-2.577,0.348-3.823,0.348
		c-4.691,0-5.966-2.086-5.966-7.791c0-5.3,1.68-7.27,5.995-7.27C14.754,22.854,17.273,23.231,17.273,23.231z"/>
	<path fill="#1885BB" d="M31.986,30.182c0,5.474-1.216,7.733-6.053,7.733c-4.865,0-6.082-2.26-6.082-7.733
		c0-5.126,1.593-7.327,6.082-7.327C30.394,22.854,31.986,25.056,31.986,30.182z M30.22,30.182c0-4.344-0.985-5.792-4.287-5.792
		c-3.33,0-4.286,1.448-4.286,5.792c0,4.432,0.521,6.198,4.286,6.198C29.669,36.38,30.22,34.613,30.22,30.182z"/>
	<path fill="#1885BB" d="M35.721,37.625v-14.48h1.709v1.071c0,0,2.433-1.361,4.721-1.361c3.968,0,4.836,1.854,4.836,7.153v7.617
		H45.25v-7.53c0-4.257-0.463-5.676-3.359-5.676c-2.259,0-4.46,1.216-4.46,1.216v11.99H35.721z"/>
	<path fill="#1885BB" d="M53.532,24.68v7.153c0,3.62,0.232,4.547,2.317,4.547c0.811,0,2.665-0.203,2.665-0.203l0.116,1.478
		c0,0-1.911,0.289-2.925,0.289c-2.867,0-3.91-1.071-3.91-5.242V24.68h-2.144v-1.535h2.144v-4.547h1.737v4.547h4.836v1.535H53.532z"
		/>
	<path fill="#1885BB" d="M61.09,23.145h1.709v2.085c0,0,2.52-1.824,5.474-2.375v1.738c-2.78,0.579-5.474,2.172-5.474,2.172v10.86
		H61.09V23.145z"/>
	<path fill="#1885BB" d="M82.059,30.182c0,5.474-1.216,7.733-6.053,7.733c-4.865,0-6.082-2.26-6.082-7.733
		c0-5.126,1.593-7.327,6.082-7.327C80.466,22.854,82.059,25.056,82.059,30.182z M80.292,30.182c0-4.344-0.985-5.792-4.287-5.792
		c-3.33,0-4.286,1.448-4.286,5.792c0,4.432,0.521,6.198,4.286,6.198C79.742,36.38,80.292,34.613,80.292,30.182z"/>
	<path fill="#1885BB" d="M85.968,16.715h1.709v20.91h-1.709V16.715z"/>
	<path fill="#1885BB" d="M101.578,24.911c0,0-3.099-0.464-5.01-0.464c-1.796,0-3.417,0.493-3.417,2.462
		c0,1.506,0.724,1.94,3.881,2.462c3.707,0.608,5.098,1.274,5.098,4.055c0,3.389-2.115,4.489-5.59,4.489
		c-1.767,0-4.952-0.521-4.952-0.521l0.116-1.535c0,0,3.244,0.492,4.721,0.492c2.491,0,3.939-0.579,3.939-2.838
		c0-1.738-0.869-2.114-4.113-2.606c-3.331-0.521-4.865-1.13-4.865-3.939c0-3.156,2.606-4.083,5.126-4.083
		c2.172,0,5.126,0.492,5.126,0.492L101.578,24.911z"/>
	<path fill="#1885BB" d="M105.487,25.113h1.911v2.954h-1.911V25.113z M105.487,34.7h1.911v2.925h-1.911V34.7z"/>
</g>
<g>
	<line fill="none" stroke="#1885BB" stroke-miterlimit="10" x1="6" y1="71.5" x2="192" y2="71.5"/>
	<g>
		<g>
			<g>
				<path fill="#FFFFFF" d="M45.544,98.084V84.803c0-2.188,1.66-3.719,4.039-3.719h24.354c2.217,0,4.607,1.422,4.607,3.719v13.281
					H45.544z"/>
				<path fill="#1885BB" d="M73.937,82.084c1.977,0,3.607,0.73,3.607,2.719v13.281h-32V84.803c0-1.896,1.955-2.719,4.039-2.719
					h23.961 M73.937,81.084H49.583c-2.549,0-5.039,1.17-5.039,3.719v14.281h34V84.803C78.544,82.254,76.483,81.084,73.937,81.084
					L73.937,81.084z"/>
			</g>
			<g>
				<path fill="#FFFFFF" d="M49.583,118.084c-2.152,0-4.039-2.076-4.039-4.443v-13.557h33v13.557c0,2.242-2.283,4.443-4.607,4.443
					H49.583z"/>
				<path fill="#1885BB" d="M77.544,101.084v12.557c0,1.953-1.574,4.443-3.607,4.443H49.583c-1.887,0-4.039-2.343-4.039-4.443
					v-12.557H77.544 M78.544,100.084h-34v13.557c0,2.549,2.49,5.443,5.039,5.443h24.354c2.549,0,4.607-2.895,4.607-5.443V100.084
					L78.544,100.084z"/>
			</g>
		</g>
		<g>
			<path fill="#FFFFFF" d="M12.155,117.756c-2.268,0-4.111-1.846-4.111-4.115v-9.805c0-2.27,1.844-4.115,4.111-4.115h24.354
				c2.27,0,4.115,1.846,4.115,4.115v9.805c0,2.271-1.846,4.115-4.115,4.115H12.155z"/>
			<path fill="#1885BB" d="M36.509,100.221c1.994,0,3.615,1.622,3.615,3.615v9.805c0,1.993-1.621,3.615-3.615,3.615H12.155
				c-1.992,0-3.611-1.622-3.611-3.615v-9.805c0-1.993,1.619-3.615,3.611-3.615H36.509 M36.509,99.221H12.155
				c-2.549,0-4.611,2.066-4.611,4.615v9.805c0,2.549,2.062,4.615,4.611,4.615h24.354c2.549,0,4.615-2.066,4.615-4.615v-9.805
				C41.124,101.288,39.058,99.221,36.509,99.221L36.509,99.221z"/>
		</g>
		<g>
			<path fill="#FFFFFF" d="M87.013,117.756c-2.27,0-4.117-1.846-4.117-4.115v-9.805c0-2.27,1.848-4.115,4.117-4.115h24.352
				c2.27,0,4.113,1.846,4.113,4.115v9.805c0,2.271-1.846,4.115-4.113,4.115H87.013z"/>
			<path fill="#1885BB" d="M111.362,100.221c1.992,0,3.615,1.622,3.615,3.615v9.805c0,1.993-1.623,3.615-3.615,3.615H87.011
				c-1.994,0-3.615-1.622-3.615-3.615v-9.805c0-1.993,1.621-3.615,3.615-3.615H111.362 M111.362,99.221H87.011
				c-2.551,0-4.615,2.066-4.615,4.615v9.805c0,2.549,2.064,4.615,4.615,4.615h24.352c2.549,0,4.615-2.066,4.615-4.615v-9.805
				C115.978,101.288,113.911,99.221,111.362,99.221L111.362,99.221z"/>
		</g>
		<polygon fill="#1885BB" points="22.706,108.739 25.188,111.221 25.188,106.256 		"/>
		<polygon fill="#1885BB" points="100.431,108.739 97.946,106.256 97.946,111.221 		"/>
		<polygon fill="#1885BB" points="61.759,88.588 59.276,91.071 64.243,91.071 		"/>
		<polygon fill="#1885BB" points="61.759,109.979 64.243,107.497 59.276,107.497 		"/>
	</g>
	<g>
		<path fill="#1885BB" d="M6.693,67.364v-5.997h1.595v0.336c0,0,0.828-0.48,1.415-0.48c0.672,0,1.139,0.18,1.499,0.563
			c0,0,1.104-0.563,2.015-0.563c1.631,0,2.111,0.959,2.111,2.891v3.25h-1.607v-3.202c0-0.912-0.12-1.5-0.84-1.5
			c-0.479,0-1.115,0.228-1.115,0.228s0.048,0.899,0.048,1.367v3.106h-1.607v-3.083c0-1.079-0.096-1.619-0.84-1.619
			c-0.527,0-1.067,0.216-1.067,0.216v4.485H6.693z"/>
		<path fill="#1885BB" d="M21.966,64.354c0,1.847-0.671,3.154-2.758,3.154s-2.759-1.308-2.759-3.154c0-1.847,0.672-3.13,2.759-3.13
			S21.966,62.507,21.966,64.354z M20.335,64.354c0-1.164-0.24-1.763-1.127-1.763c-0.888,0-1.127,0.6-1.127,1.763
			c0,1.163,0.24,1.787,1.127,1.787C20.095,66.141,20.335,65.517,20.335,64.354z"/>
		<path fill="#1885BB" d="M24.176,61.368l0.959,4.629h0.336l1.007-4.629h1.631l-1.439,5.997h-2.734l-1.439-5.997H24.176z"/>
		<path fill="#1885BB" d="M33.702,65.985l0.024,1.188c0,0-1.379,0.336-2.495,0.336c-1.811,0-2.579-0.899-2.579-3.059
			c0-2.135,0.899-3.226,2.65-3.226c1.763,0,2.615,0.899,2.615,2.71l-0.12,1.115h-3.526c0.012,0.72,0.348,1.043,1.211,1.043
			C32.467,66.093,33.702,65.985,33.702,65.985z M32.335,63.826c0-0.971-0.276-1.283-1.032-1.283c-0.768,0-1.031,0.372-1.043,1.283
			H32.335z"/>
	</g>
</g>
<g>
	<line fill="none" stroke="#1885BB" stroke-miterlimit="10" x1="6" y1="142.5" x2="192" y2="142.5"/>
	<g>
		<g>
			<g>
				<path fill="#FFFFFF" d="M45.544,168.885v-13.281c0-2.188,1.66-3.719,4.039-3.719h24.354c2.217,0,4.607,1.422,4.607,3.719v13.281
					H45.544z"/>
				<path fill="#1885BB" d="M73.937,152.885c1.977,0,3.607,0.73,3.607,2.719v13.281h-32v-13.281c0-1.896,1.955-2.719,4.039-2.719
					h23.961 M73.937,151.885H49.583c-2.549,0-5.039,1.17-5.039,3.719v14.281h34v-14.281
					C78.544,153.055,76.483,151.885,73.937,151.885L73.937,151.885z"/>
			</g>
			<g>
				<path fill="#FFFFFF" d="M49.583,188.885c-2.152,0-4.039-2.076-4.039-4.443v-13.557h33v13.557c0,2.242-2.283,4.443-4.607,4.443
					H49.583z"/>
				<path fill="#1885BB" d="M77.544,171.885v12.557c0,1.953-1.574,4.443-3.607,4.443H49.583c-1.887,0-4.039-2.343-4.039-4.443
					v-12.557H77.544 M78.544,170.885h-34v13.557c0,2.549,2.49,5.443,5.039,5.443h24.354c2.549,0,4.607-2.895,4.607-5.443V170.885
					L78.544,170.885z"/>
			</g>
		</g>
		<polygon fill="#1885BB" points="61.759,159.389 59.276,161.871 64.243,161.871 		"/>
		<polygon fill="#1885BB" points="61.759,180.779 64.243,178.297 59.276,178.297 		"/>
	</g>
	<g>
		<path fill="#1885BB" d="M6.693,132.168h1.595v0.324c0,0,0.779-0.468,1.367-0.468c1.583,0,2.363,0.864,2.363,3.094
			c0,2.555-0.888,3.19-2.723,3.19c-0.444,0-0.996-0.096-0.996-0.096v2.471H6.693V132.168z M8.3,133.703v3.142
			c0,0,0.54,0.072,0.875,0.072c0.959,0,1.211-0.527,1.211-1.799c0-1.211-0.408-1.655-1.043-1.655
			C8.852,133.463,8.3,133.703,8.3,133.703z"/>
		<path fill="#1885BB" d="M17.971,136.785l0.024,1.188c0,0-1.379,0.336-2.495,0.336c-1.811,0-2.579-0.899-2.579-3.059
			c0-2.135,0.899-3.226,2.65-3.226c1.763,0,2.615,0.899,2.615,2.71l-0.12,1.115h-3.526c0.012,0.72,0.348,1.043,1.211,1.043
			C16.735,136.893,17.971,136.785,17.971,136.785z M16.604,134.626c0-0.971-0.276-1.283-1.032-1.283
			c-0.768,0-1.031,0.372-1.043,1.283H16.604z"/>
		<path fill="#1885BB" d="M19.341,138.165v-5.997h1.595v0.336c0,0,0.815-0.48,1.499-0.48c1.679,0,2.111,1.055,2.111,2.891v3.25
			h-1.607v-3.202c0-0.912-0.12-1.5-0.9-1.5c-0.563,0-1.091,0.216-1.091,0.216v4.485H19.341z"/>
		<path fill="#1885BB" d="M28.617,138.165v-5.997h1.595v0.336c0,0,0.827-0.48,1.415-0.48c0.672,0,1.14,0.18,1.499,0.563
			c0,0,1.104-0.563,2.015-0.563c1.631,0,2.111,0.959,2.111,2.891v3.25h-1.607v-3.202c0-0.912-0.12-1.5-0.839-1.5
			c-0.479,0-1.115,0.228-1.115,0.228s0.048,0.899,0.048,1.367v3.106h-1.607v-3.083c0-1.079-0.096-1.619-0.84-1.619
			c-0.527,0-1.067,0.216-1.067,0.216v4.485H28.617z"/>
		<path fill="#1885BB" d="M43.89,135.154c0,1.847-0.672,3.154-2.758,3.154c-2.087,0-2.759-1.308-2.759-3.154
			c0-1.847,0.672-3.13,2.759-3.13C43.218,132.024,43.89,133.307,43.89,135.154z M42.259,135.154c0-1.164-0.24-1.763-1.127-1.763
			c-0.888,0-1.127,0.6-1.127,1.763c0,1.163,0.24,1.787,1.127,1.787C42.019,136.941,42.259,136.317,42.259,135.154z"/>
		<path fill="#1885BB" d="M46.1,132.168l0.959,4.629h0.336l1.007-4.629h1.631l-1.439,5.997H45.86l-1.439-5.997H46.1z"/>
		<path fill="#1885BB" d="M55.626,136.785l0.024,1.188c0,0-1.379,0.336-2.495,0.336c-1.811,0-2.579-0.899-2.579-3.059
			c0-2.135,0.899-3.226,2.65-3.226c1.763,0,2.615,0.899,2.615,2.71l-0.12,1.115h-3.526c0.012,0.72,0.348,1.043,1.211,1.043
			C54.391,136.893,55.626,136.785,55.626,136.785z M54.259,134.626c0-0.971-0.276-1.283-1.032-1.283
			c-0.768,0-1.031,0.372-1.043,1.283H54.259z"/>
	</g>
	<g>
		<g>
			<path fill="#FFFFFF" d="M12.157,189.386c-2.27,0-4.113-2.123-4.113-4.732v-27.604c0-2.608,1.844-4.729,4.113-4.729h24.354
				c2.27,0,4.115,2.121,4.115,4.729v27.604c0,2.609-1.846,4.732-4.115,4.732H12.157z"/>
			<path fill="#1885BB" d="M36.511,152.817c1.994,0,3.615,1.897,3.615,4.23v27.605c0,2.334-1.621,4.231-3.615,4.231H12.157
				c-1.992,0-3.613-1.897-3.613-4.231v-27.605c0-2.333,1.621-4.23,3.613-4.23H36.511 M36.511,151.817H12.157
				c-2.548,0-4.613,2.342-4.613,5.23v27.605c0,2.889,2.064,5.231,4.613,5.231h24.354c2.549,0,4.615-2.344,4.615-5.231v-27.605
				C41.126,154.159,39.061,151.817,36.511,151.817L36.511,151.817z"/>
		</g>
		<g>
			<path fill="#1885BB" d="M17.572,181.833c-0.229,0.105-0.681,0.229-1.22,0.229c-1.344,0-2.219-0.865-2.219-2.201
				c0-1.293,0.883-2.299,2.396-2.299c0.397,0,0.806,0.088,1.052,0.203l-0.193,0.812c-0.178-0.078-0.434-0.168-0.822-0.168
				c-0.832,0-1.327,0.609-1.318,1.397c0,0.884,0.575,1.39,1.318,1.39c0.379,0,0.645-0.08,0.855-0.17L17.572,181.833z"/>
			<path fill="#1885BB" d="M19.757,176.554v1.104h1.035v0.816h-1.035v1.898c0,0.521,0.143,0.797,0.558,0.797
				c0.204,0,0.301-0.018,0.425-0.053l0.018,0.828c-0.158,0.063-0.442,0.117-0.787,0.117c-0.397,0-0.733-0.142-0.938-0.363
				c-0.229-0.246-0.335-0.637-0.335-1.203v-2.021h-0.619v-0.816h0.619v-0.795L19.757,176.554z"/>
			<path fill="#1885BB" d="M21.615,179.046c0-0.582-0.009-0.998-0.036-1.389h0.946l0.035,0.824h0.036
				c0.213-0.611,0.716-0.92,1.176-0.92c0.105,0,0.168,0.006,0.256,0.024v1.024c-0.087-0.016-0.186-0.035-0.318-0.035
				c-0.521,0-0.875,0.337-0.973,0.822c-0.018,0.099-0.035,0.211-0.035,0.336v2.229h-1.087V179.046L21.615,179.046z"/>
			<path fill="#1885BB" d="M24.763,175.687h1.098v6.277h-1.098V175.687z"/>
		</g>
	</g>
</g>
<line fill="none" stroke="#1885BB" stroke-miterlimit="10" x1="6" y1="213.5" x2="97" y2="213.5"/>
<g>
	<path fill="#1885BB" d="M10.999,204.467c0,0-1.487-0.192-2.183-0.192c-0.695,0-0.839,0.156-0.839,0.48
		c0,0.275,0.228,0.335,1.331,0.54c1.392,0.252,1.883,0.66,1.883,1.871c0,1.403-0.912,1.943-2.411,1.943
		c-0.888,0-2.303-0.288-2.303-0.288l0.048-1.343c0,0,1.487,0.192,2.099,0.192c0.768,0,0.972-0.156,0.972-0.468
		c0-0.264-0.132-0.384-1.235-0.563c-1.295-0.216-1.979-0.528-1.979-1.847c0-1.391,1.056-1.955,2.315-1.955
		c0.863,0,2.327,0.3,2.327,0.3L10.999,204.467z"/>
	<path fill="#1885BB" d="M17.106,207.585l0.024,1.188c0,0-1.379,0.336-2.495,0.336c-1.811,0-2.579-0.899-2.579-3.059
		c0-2.135,0.899-3.226,2.65-3.226c1.763,0,2.615,0.899,2.615,2.71l-0.12,1.115h-3.526c0.012,0.72,0.348,1.043,1.211,1.043
		C15.871,207.693,17.106,207.585,17.106,207.585z M15.739,205.427c0-0.971-0.276-1.283-1.032-1.283
		c-0.768,0-1.031,0.372-1.043,1.283H15.739z"/>
	<path fill="#1885BB" d="M20.324,204.335v2.458c0,0.6,0,0.875,0.503,0.875c0.336,0,0.912-0.024,0.912-0.024l0.072,1.283
		c0,0-0.803,0.18-1.223,0.18c-1.451,0-1.871-0.552-1.871-2.279v-2.495h-0.708v-1.367h0.708v-1.667h1.607v1.667h1.475v1.367H20.324z"
		/>
	<path fill="#1885BB" d="M29.791,204.467c0,0-1.487-0.192-2.183-0.192c-0.695,0-0.839,0.156-0.839,0.48
		c0,0.275,0.228,0.335,1.332,0.54c1.391,0.252,1.883,0.66,1.883,1.871c0,1.403-0.912,1.943-2.411,1.943
		c-0.888,0-2.303-0.288-2.303-0.288l0.048-1.343c0,0,1.487,0.192,2.099,0.192c0.768,0,0.972-0.156,0.972-0.468
		c0-0.264-0.132-0.384-1.235-0.563c-1.295-0.216-1.979-0.528-1.979-1.847c0-1.391,1.056-1.955,2.315-1.955
		c0.863,0,2.327,0.3,2.327,0.3L29.791,204.467z"/>
	<path fill="#1885BB" d="M32.996,204.335v2.458c0,0.6,0,0.875,0.503,0.875c0.336,0,0.912-0.024,0.912-0.024l0.072,1.283
		c0,0-0.803,0.18-1.223,0.18c-1.451,0-1.871-0.552-1.871-2.279v-2.495h-0.708v-1.367h0.708v-1.667h1.607v1.667h1.475v1.367H32.996z"
		/>
	<path fill="#1885BB" d="M40.11,207.333c0.024,0.36,0.072,0.504,0.396,0.564l-0.048,1.211c-0.804,0-1.211-0.084-1.715-0.42
		c0,0-0.863,0.42-1.763,0.42c-1.259,0-1.859-0.696-1.859-1.967c0-1.355,0.78-1.739,2.099-1.835l1.283-0.096v-0.372
		c0-0.516-0.228-0.648-0.708-0.648c-0.792,0-2.255,0.096-2.255,0.096l-0.048-1.116c0,0,1.283-0.348,2.435-0.348
		c1.559,0,2.183,0.612,2.183,2.015V207.333z M37.412,206.422c-0.42,0.036-0.672,0.24-0.672,0.671c0,0.42,0.156,0.708,0.588,0.708
		c0.516,0,1.175-0.192,1.175-0.192v-1.283L37.412,206.422z"/>
	<path fill="#1885BB" d="M41.648,202.968h1.595v0.636c0,0,1.007-0.6,1.919-0.78v1.619c-1.056,0.204-1.907,0.504-1.907,0.504v4.018
		h-1.607V202.968z"/>
	<path fill="#1885BB" d="M47.959,204.335v2.458c0,0.6,0,0.875,0.504,0.875c0.336,0,0.912-0.024,0.912-0.024l0.072,1.283
		c0,0-0.803,0.18-1.223,0.18c-1.451,0-1.871-0.552-1.871-2.279v-2.495h-0.708v-1.367h0.708v-1.667h1.607v1.667h1.476v1.367H47.959z"
		/>
	<path fill="#1885BB" d="M50.48,200.569h1.607v1.631H50.48V200.569z M50.48,202.968h1.607v5.997H50.48V202.968z"/>
	<path fill="#1885BB" d="M53.577,208.965v-5.997h1.595v0.336c0,0,0.815-0.48,1.499-0.48c1.679,0,2.111,1.055,2.111,2.891v3.25
		h-1.607v-3.202c0-0.912-0.12-1.5-0.9-1.5c-0.563,0-1.091,0.216-1.091,0.216v4.485H53.577z"/>
	<path fill="#1885BB" d="M59.913,210.056c0-0.552,0.264-0.959,0.863-1.427c-0.264-0.18-0.444-0.54-0.444-0.912
		c0-0.3,0.468-0.959,0.468-0.959c-0.419-0.3-0.815-0.744-0.815-1.787c0-1.547,1.115-2.123,2.519-2.123
		c0.528,0,1.211,0.156,1.211,0.156l1.931-0.06v1.283l-0.899-0.072c0.108,0.168,0.264,0.468,0.264,0.816
		c0,1.679-0.888,2.111-2.531,2.111c-0.132,0-0.384-0.024-0.492-0.048c0,0-0.12,0.312-0.12,0.468c0,0.312,0.144,0.384,1.164,0.396
		c2.039,0.012,2.615,0.468,2.615,1.811c0,1.463-1.295,2.015-2.843,2.015C61.052,211.723,59.913,211.399,59.913,210.056z
		 M61.819,209.205c-0.204,0.204-0.324,0.384-0.324,0.684c0,0.348,0.42,0.516,1.319,0.516c0.78,0,1.211-0.167,1.211-0.6
		c0-0.456-0.24-0.503-1.127-0.516C62.563,209.289,61.819,209.205,61.819,209.205z M63.427,204.971c0-0.564-0.264-0.875-0.912-0.875
		c-0.648,0-0.923,0.312-0.923,0.875c0,0.563,0.275,0.887,0.923,0.887C63.163,205.858,63.427,205.535,63.427,204.971z"/>
	<path fill="#1885BB" d="M69.26,202.968h1.595v0.324c0,0,0.779-0.468,1.367-0.468c1.583,0,2.363,0.864,2.363,3.094
		c0,2.555-0.888,3.19-2.723,3.19c-0.444,0-0.996-0.096-0.996-0.096v2.471H69.26V202.968z M70.867,204.503v3.142
		c0,0,0.54,0.072,0.875,0.072c0.959,0,1.211-0.527,1.211-1.799c0-1.211-0.408-1.655-1.043-1.655
		C71.419,204.263,70.867,204.503,70.867,204.503z"/>
	<path fill="#1885BB" d="M80.993,205.955c0,1.847-0.672,3.154-2.758,3.154c-2.087,0-2.759-1.308-2.759-3.154
		c0-1.847,0.672-3.13,2.759-3.13C80.321,202.824,80.993,204.107,80.993,205.955z M79.362,205.955c0-1.164-0.24-1.763-1.127-1.763
		c-0.888,0-1.127,0.6-1.127,1.763c0,1.163,0.24,1.787,1.127,1.787C79.122,207.742,79.362,207.118,79.362,205.955z"/>
	<path fill="#1885BB" d="M82.172,200.569h1.607v1.631h-1.607V200.569z M82.172,202.968h1.607v5.997h-1.607V202.968z"/>
	<path fill="#1885BB" d="M85.268,208.965v-5.997h1.595v0.336c0,0,0.815-0.48,1.499-0.48c1.679,0,2.111,1.055,2.111,2.891v3.25
		h-1.607v-3.202c0-0.912-0.12-1.5-0.9-1.5c-0.563,0-1.091,0.216-1.091,0.216v4.485H85.268z"/>
	<path fill="#1885BB" d="M93.751,204.335v2.458c0,0.6,0,0.875,0.503,0.875c0.336,0,0.912-0.024,0.912-0.024l0.072,1.283
		c0,0-0.803,0.18-1.223,0.18c-1.451,0-1.871-0.552-1.871-2.279v-2.495h-0.708v-1.367h0.708v-1.667h1.607v1.667h1.475v1.367H93.751z"
		/>
</g>
<line fill="none" stroke="#1885BB" stroke-miterlimit="10" x1="104" y1="213.5" x2="193" y2="213.5"/>
<g>
	<path fill="#1885BB" d="M104.394,210.056c0-0.552,0.264-0.959,0.863-1.427c-0.264-0.18-0.443-0.54-0.443-0.912
		c0-0.3,0.468-0.959,0.468-0.959c-0.42-0.3-0.816-0.744-0.816-1.787c0-1.547,1.116-2.123,2.52-2.123
		c0.527,0,1.211,0.156,1.211,0.156l1.932-0.06v1.283l-0.9-0.072c0.108,0.168,0.264,0.468,0.264,0.816
		c0,1.679-0.887,2.111-2.53,2.111c-0.132,0-0.384-0.024-0.491-0.048c0,0-0.12,0.312-0.12,0.468c0,0.312,0.144,0.384,1.163,0.396
		c2.039,0.012,2.615,0.468,2.615,1.811c0,1.463-1.296,2.015-2.844,2.015C105.533,211.723,104.394,211.399,104.394,210.056z
		 M106.301,209.205c-0.204,0.204-0.324,0.384-0.324,0.684c0,0.348,0.42,0.516,1.319,0.516c0.779,0,1.212-0.167,1.212-0.6
		c0-0.456-0.24-0.503-1.128-0.516C107.044,209.289,106.301,209.205,106.301,209.205z M107.908,204.971
		c0-0.564-0.265-0.875-0.912-0.875s-0.924,0.312-0.924,0.875c0,0.563,0.276,0.887,0.924,0.887S107.908,205.535,107.908,204.971z"/>
	<path fill="#1885BB" d="M116.307,205.955c0,1.847-0.672,3.154-2.759,3.154s-2.759-1.308-2.759-3.154c0-1.847,0.672-3.13,2.759-3.13
		S116.307,204.107,116.307,205.955z M114.675,205.955c0-1.164-0.239-1.763-1.127-1.763s-1.128,0.6-1.128,1.763
		c0,1.163,0.24,1.787,1.128,1.787S114.675,207.118,114.675,205.955z"/>
	<path fill="#1885BB" d="M120.125,208.965v-8.396h1.607v2.687c0,0,0.827-0.432,1.486-0.432c1.68,0,2.111,1.055,2.111,2.891v3.25
		h-1.607v-3.214c0-0.899-0.119-1.487-0.899-1.487c-0.527,0-1.091,0.192-1.091,0.192v4.509H120.125z"/>
	<path fill="#1885BB" d="M131.967,205.955c0,1.847-0.672,3.154-2.759,3.154s-2.759-1.308-2.759-3.154c0-1.847,0.672-3.13,2.759-3.13
		S131.967,204.107,131.967,205.955z M130.335,205.955c0-1.164-0.239-1.763-1.127-1.763s-1.128,0.6-1.128,1.763
		c0,1.163,0.24,1.787,1.128,1.787S130.335,207.118,130.335,205.955z"/>
	<path fill="#1885BB" d="M133.145,208.965v-5.997h1.596v0.336c0,0,0.827-0.48,1.415-0.48c0.672,0,1.14,0.18,1.499,0.563
		c0,0,1.104-0.563,2.016-0.563c1.631,0,2.11,0.959,2.11,2.891v3.25h-1.607v-3.202c0-0.912-0.12-1.5-0.839-1.5
		c-0.48,0-1.115,0.228-1.115,0.228s0.047,0.899,0.047,1.367v3.106h-1.606v-3.083c0-1.079-0.097-1.619-0.84-1.619
		c-0.527,0-1.067,0.216-1.067,0.216v4.485H133.145z"/>
	<path fill="#1885BB" d="M147.963,207.585l0.023,1.188c0,0-1.379,0.336-2.494,0.336c-1.812,0-2.579-0.899-2.579-3.059
		c0-2.135,0.899-3.226,2.65-3.226c1.763,0,2.614,0.899,2.614,2.71l-0.119,1.115h-3.526c0.012,0.72,0.348,1.043,1.212,1.043
		C146.727,207.693,147.963,207.585,147.963,207.585z M146.595,205.427c0-0.971-0.275-1.283-1.031-1.283
		c-0.768,0-1.031,0.372-1.044,1.283H146.595z"/>
</g>
<g>
	<g>
		<path fill="#FFFFFF" d="M110.157,260.186c-2.27,0-4.113-2.123-4.113-4.732v-27.604c0-2.608,1.844-4.729,4.113-4.729h24.354
			c2.27,0,4.115,2.121,4.115,4.729v27.604c0,2.609-1.846,4.732-4.115,4.732H110.157z"/>
		<path fill="#1885BB" d="M134.511,223.618c1.994,0,3.615,1.897,3.615,4.23v27.605c0,2.334-1.621,4.231-3.615,4.231h-24.354
			c-1.992,0-3.613-1.897-3.613-4.231v-27.605c0-2.333,1.621-4.23,3.613-4.23H134.511 M134.511,222.618h-24.354
			c-2.548,0-4.613,2.342-4.613,5.23v27.605c0,2.889,2.064,5.231,4.613,5.231h24.354c2.549,0,4.615-2.344,4.615-5.231v-27.605
			C139.126,224.959,137.061,222.618,134.511,222.618L134.511,222.618z"/>
	</g>
	<g>
		<path fill="#1885BB" d="M115.572,252.633c-0.229,0.105-0.681,0.229-1.22,0.229c-1.344,0-2.219-0.865-2.219-2.201
			c0-1.293,0.883-2.299,2.396-2.299c0.397,0,0.806,0.088,1.052,0.203l-0.193,0.812c-0.178-0.078-0.434-0.168-0.822-0.168
			c-0.832,0-1.327,0.609-1.318,1.397c0,0.884,0.575,1.39,1.318,1.39c0.379,0,0.645-0.08,0.855-0.17L115.572,252.633z"/>
		<path fill="#1885BB" d="M117.757,247.354v1.104h1.035v0.816h-1.035v1.898c0,0.521,0.143,0.797,0.558,0.797
			c0.204,0,0.301-0.018,0.425-0.053l0.018,0.828c-0.158,0.063-0.442,0.117-0.787,0.117c-0.397,0-0.733-0.142-0.938-0.363
			c-0.229-0.246-0.335-0.637-0.335-1.203v-2.021h-0.619v-0.816h0.619v-0.795L117.757,247.354z"/>
		<path fill="#1885BB" d="M119.615,249.846c0-0.582-0.009-0.998-0.036-1.389h0.946l0.035,0.824h0.036
			c0.213-0.611,0.716-0.92,1.176-0.92c0.105,0,0.168,0.006,0.256,0.024v1.024c-0.087-0.016-0.186-0.035-0.318-0.035
			c-0.521,0-0.875,0.337-0.973,0.822c-0.018,0.099-0.035,0.211-0.035,0.336v2.229h-1.087V249.846L119.615,249.846z"/>
		<path fill="#1885BB" d="M122.763,246.487h1.098v6.277h-1.098V246.487z"/>
	</g>
</g>
<g>
	<g>
		<path fill="#FFFFFF" d="M12.159,260.186c-2.27,0-4.115-2.123-4.115-4.732v-27.604c0-2.608,1.846-4.729,4.115-4.729h24.354
			c2.27,0,4.115,2.121,4.115,4.729v27.604c0,2.609-1.846,4.732-4.115,4.732H12.159z"/>
		<path fill="#1885BB" d="M36.513,223.618c1.992,0,3.615,1.897,3.615,4.23v27.605c0,2.334-1.623,4.231-3.615,4.231H12.159
			c-1.994,0-3.615-1.897-3.615-4.231v-27.605c0-2.333,1.621-4.23,3.615-4.23H36.513 M36.513,222.618H12.159
			c-2.549,0-4.615,2.342-4.615,5.23v27.605c0,2.889,2.065,5.231,4.615,5.231h24.354c2.548,0,4.615-2.344,4.615-5.231v-27.605
			C41.126,224.959,39.061,222.618,36.513,222.618L36.513,222.618z"/>
	</g>
	<g>
		<path fill="#1885BB" d="M14.942,232.69c0,0.305,0.014,0.604,0.049,0.811h-0.77l-0.055-0.372h-0.021
			c-0.207,0.262-0.561,0.448-0.998,0.448c-0.678,0-1.059-0.489-1.059-1.004c0-0.852,0.755-1.281,2-1.272v-0.058
			c0-0.221-0.088-0.588-0.686-0.588c-0.332,0-0.678,0.104-0.906,0.25l-0.166-0.555c0.248-0.15,0.685-0.297,1.217-0.297
			c1.082,0,1.393,0.684,1.393,1.418v1.219H14.942z M14.112,231.852c-0.603-0.014-1.177,0.117-1.177,0.631
			c0,0.334,0.214,0.484,0.483,0.484c0.34,0,0.59-0.221,0.666-0.465c0.021-0.062,0.027-0.131,0.027-0.187V231.852L14.112,231.852z"/>
		<path fill="#1885BB" d="M15.843,228.584H16.7v4.916h-0.857V228.584z"/>
		<path fill="#1885BB" d="M18.598,229.262v0.865h0.81v0.639h-0.81v1.488c0,0.408,0.11,0.623,0.437,0.623
			c0.159,0,0.235-0.014,0.332-0.041l0.014,0.65c-0.123,0.049-0.346,0.09-0.615,0.09c-0.312,0-0.575-0.109-0.734-0.283
			c-0.18-0.195-0.263-0.498-0.263-0.941v-1.586h-0.483v-0.639h0.483v-0.621L18.598,229.262z"/>
	</g>
	<g>
		<path fill="#1885BB" d="M15.171,250.573c0,1.582-1.112,2.289-2.209,2.289c-1.221,0-2.158-0.838-2.158-2.219
			c0-1.414,0.928-2.281,2.229-2.281C14.313,248.362,15.171,249.264,15.171,250.573z M11.927,250.616c0,0.83,0.406,1.459,1.068,1.459
			c0.619,0,1.053-0.61,1.053-1.477c0-0.672-0.301-1.441-1.043-1.441C12.235,249.157,11.927,249.899,11.927,250.616z"/>
		<path fill="#1885BB" d="M16.064,249.891c0-0.564-0.019-1.025-0.035-1.434h0.955l0.054,0.664h0.019
			c0.317-0.486,0.821-0.76,1.476-0.76c0.99,0,1.812,0.848,1.812,2.192c0,1.555-0.981,2.308-1.963,2.308
			c-0.539,0-0.99-0.229-1.211-0.574h-0.019v2.229h-1.088V249.891L16.064,249.891z M17.152,250.961c0,0.104,0.009,0.201,0.035,0.301
			c0.106,0.441,0.496,0.762,0.956,0.762c0.688,0,1.096-0.578,1.096-1.426c0-0.76-0.373-1.379-1.07-1.379
			c-0.449,0-0.866,0.326-0.973,0.805c-0.025,0.086-0.044,0.186-0.044,0.273V250.961L17.152,250.961z"/>
		<path fill="#1885BB" d="M22.485,247.354v1.104h1.036v0.816h-1.036v1.898c0,0.521,0.143,0.797,0.559,0.797
			c0.203,0,0.3-0.018,0.425-0.053l0.017,0.828c-0.158,0.063-0.441,0.117-0.787,0.117c-0.398,0-0.734-0.142-0.937-0.363
			c-0.229-0.246-0.337-0.637-0.337-1.203v-2.021h-0.618v-0.816h0.618v-0.795L22.485,247.354z"/>
		<path fill="#1885BB" d="M25.501,247.256c0,0.328-0.238,0.582-0.619,0.582c-0.362,0-0.602-0.254-0.602-0.582
			c0-0.336,0.249-0.594,0.611-0.594C25.264,246.663,25.493,246.92,25.501,247.256z M24.344,252.764v-4.307h1.096v4.307H24.344z"/>
		<path fill="#1885BB" d="M30.702,250.573c0,1.582-1.115,2.289-2.209,2.289c-1.222,0-2.158-0.838-2.158-2.219
			c0-1.414,0.929-2.281,2.228-2.281C29.844,248.362,30.702,249.264,30.702,250.573z M27.456,250.616c0,0.83,0.406,1.459,1.069,1.459
			c0.619,0,1.054-0.61,1.054-1.477c0-0.672-0.302-1.441-1.045-1.441C27.767,249.157,27.456,249.899,27.456,250.616z"/>
		<path fill="#1885BB" d="M31.596,249.741c0-0.494-0.009-0.91-0.036-1.283h0.956l0.052,0.646h0.026
			c0.187-0.336,0.655-0.742,1.37-0.742c0.752,0,1.531,0.486,1.531,1.848v2.556h-1.088v-2.433c0-0.618-0.229-1.086-0.822-1.086
			c-0.433,0-0.733,0.31-0.849,0.638c-0.036,0.096-0.044,0.228-0.044,0.354v2.526h-1.097V249.741L31.596,249.741z"/>
	</g>
</g>
<g>
	<g>
		<path fill="#FFFFFF" d="M147.575,260.186c-2.27,0-4.115-2.123-4.115-4.732v-27.604c0-2.608,1.846-4.729,4.115-4.729h24.354
			c2.27,0,4.115,2.121,4.115,4.729v27.604c0,2.609-1.846,4.732-4.115,4.732H147.575z"/>
		<path fill="#1885BB" d="M171.929,223.618c1.992,0,3.615,1.897,3.615,4.23v27.605c0,2.334-1.623,4.231-3.615,4.231h-24.354
			c-1.994,0-3.615-1.897-3.615-4.231v-27.605c0-2.333,1.621-4.23,3.615-4.23H171.929 M171.929,222.618h-24.354
			c-2.549,0-4.615,2.342-4.615,5.23v27.605c0,2.889,2.065,5.231,4.615,5.231h24.354c2.548,0,4.615-2.344,4.615-5.231v-27.605
			C176.542,224.959,174.477,222.618,171.929,222.618L171.929,222.618z"/>
	</g>
	<g>
		<path fill="#1885BB" d="M150.358,232.69c0,0.305,0.014,0.604,0.049,0.811h-0.77l-0.055-0.372h-0.021
			c-0.207,0.262-0.561,0.448-0.998,0.448c-0.678,0-1.059-0.489-1.059-1.004c0-0.852,0.755-1.281,2-1.272v-0.058
			c0-0.221-0.088-0.588-0.686-0.588c-0.332,0-0.678,0.104-0.906,0.25l-0.166-0.555c0.248-0.15,0.685-0.297,1.217-0.297
			c1.082,0,1.393,0.684,1.393,1.418v1.219H150.358z M149.528,231.852c-0.603-0.014-1.177,0.117-1.177,0.631
			c0,0.334,0.214,0.484,0.483,0.484c0.34,0,0.59-0.221,0.666-0.465c0.021-0.062,0.027-0.131,0.027-0.187V231.852L149.528,231.852z"
			/>
		<path fill="#1885BB" d="M151.259,228.584h0.857v4.916h-0.857V228.584z"/>
		<path fill="#1885BB" d="M154.014,229.262v0.865h0.81v0.639h-0.81v1.488c0,0.408,0.11,0.623,0.437,0.623
			c0.159,0,0.235-0.014,0.332-0.041l0.014,0.65c-0.123,0.049-0.346,0.09-0.615,0.09c-0.312,0-0.575-0.109-0.734-0.283
			c-0.18-0.195-0.263-0.498-0.263-0.941v-1.586H152.7v-0.639h0.483v-0.621L154.014,229.262z"/>
	</g>
	<g>
		<path fill="#1885BB" d="M150.587,250.573c0,1.582-1.112,2.289-2.209,2.289c-1.221,0-2.158-0.838-2.158-2.219
			c0-1.414,0.928-2.281,2.229-2.281C149.729,248.362,150.587,249.264,150.587,250.573z M147.343,250.616
			c0,0.83,0.406,1.459,1.068,1.459c0.619,0,1.053-0.61,1.053-1.477c0-0.672-0.301-1.441-1.043-1.441
			C147.651,249.157,147.343,249.899,147.343,250.616z"/>
		<path fill="#1885BB" d="M151.48,249.891c0-0.564-0.019-1.025-0.035-1.434h0.955l0.054,0.664h0.019
			c0.317-0.486,0.821-0.76,1.476-0.76c0.99,0,1.812,0.848,1.812,2.192c0,1.555-0.981,2.308-1.963,2.308
			c-0.539,0-0.99-0.229-1.211-0.574h-0.019v2.229h-1.088V249.891L151.48,249.891z M152.568,250.961c0,0.104,0.009,0.201,0.035,0.301
			c0.106,0.441,0.496,0.762,0.956,0.762c0.688,0,1.096-0.578,1.096-1.426c0-0.76-0.373-1.379-1.07-1.379
			c-0.449,0-0.866,0.326-0.973,0.805c-0.025,0.086-0.044,0.186-0.044,0.273V250.961L152.568,250.961z"/>
		<path fill="#1885BB" d="M157.901,247.354v1.104h1.036v0.816h-1.036v1.898c0,0.521,0.143,0.797,0.559,0.797
			c0.203,0,0.3-0.018,0.425-0.053l0.017,0.828c-0.158,0.063-0.441,0.117-0.787,0.117c-0.398,0-0.734-0.142-0.937-0.363
			c-0.229-0.246-0.337-0.637-0.337-1.203v-2.021h-0.618v-0.816h0.618v-0.795L157.901,247.354z"/>
		<path fill="#1885BB" d="M160.917,247.256c0,0.328-0.238,0.582-0.619,0.582c-0.362,0-0.602-0.254-0.602-0.582
			c0-0.336,0.249-0.594,0.611-0.594C160.68,246.663,160.909,246.92,160.917,247.256z M159.76,252.764v-4.307h1.096v4.307H159.76z"/>
		<path fill="#1885BB" d="M166.118,250.573c0,1.582-1.115,2.289-2.209,2.289c-1.222,0-2.158-0.838-2.158-2.219
			c0-1.414,0.929-2.281,2.228-2.281C165.26,248.362,166.118,249.264,166.118,250.573z M162.872,250.616
			c0,0.83,0.406,1.459,1.069,1.459c0.619,0,1.054-0.61,1.054-1.477c0-0.672-0.302-1.441-1.045-1.441
			C163.183,249.157,162.872,249.899,162.872,250.616z"/>
		<path fill="#1885BB" d="M167.012,249.741c0-0.494-0.009-0.91-0.036-1.283h0.956l0.052,0.646h0.026
			c0.187-0.336,0.655-0.742,1.37-0.742c0.752,0,1.531,0.486,1.531,1.848v2.556h-1.088v-2.433c0-0.618-0.229-1.086-0.822-1.086
			c-0.433,0-0.733,0.31-0.849,0.638c-0.036,0.096-0.044,0.228-0.044,0.354v2.526h-1.097V249.741L167.012,249.741z"/>
	</g>
</g>
<line fill="none" stroke="#1885BB" stroke-miterlimit="10" x1="6" y1="284.5" x2="97" y2="284.5"/>
<g>
	<path fill="#1885BB" d="M6.765,271.37h1.607v8.396H6.765V271.37z"/>
	<path fill="#1885BB" d="M15.138,276.755c0,1.847-0.671,3.154-2.758,3.154s-2.759-1.308-2.759-3.154c0-1.847,0.672-3.13,2.759-3.13
		S15.138,274.908,15.138,276.755z M13.507,276.755c0-1.164-0.24-1.763-1.127-1.763c-0.888,0-1.127,0.6-1.127,1.763
		c0,1.163,0.24,1.787,1.127,1.787C13.267,278.542,13.507,277.918,13.507,276.755z"/>
	<path fill="#1885BB" d="M20.91,278.134c0.024,0.36,0.072,0.504,0.396,0.564l-0.048,1.211c-0.804,0-1.211-0.084-1.715-0.42
		c0,0-0.863,0.42-1.763,0.42c-1.26,0-1.859-0.696-1.859-1.967c0-1.355,0.78-1.739,2.099-1.835l1.283-0.096v-0.372
		c0-0.516-0.228-0.648-0.708-0.648c-0.792,0-2.255,0.096-2.255,0.096l-0.048-1.116c0,0,1.283-0.348,2.435-0.348
		c1.559,0,2.183,0.612,2.183,2.015V278.134z M18.212,277.223c-0.42,0.036-0.672,0.24-0.672,0.671c0,0.42,0.156,0.708,0.588,0.708
		c0.516,0,1.175-0.192,1.175-0.192v-1.283L18.212,277.223z"/>
	<path fill="#1885BB" d="M27.546,279.765h-1.595v-0.252c0,0-0.839,0.396-1.451,0.396c-1.811,0-2.339-1.056-2.339-3.167
		c0-2.195,0.852-3.118,2.483-3.118c0.444,0,1.295,0.168,1.295,0.168v-2.423h1.607V279.765z M25.939,278.29v-3.154
		c0,0-0.66-0.12-1.176-0.12c-0.6,0-0.971,0.516-0.971,1.727c0,1.224,0.228,1.727,0.983,1.727
		C25.339,278.47,25.939,278.29,25.939,278.29z"/>
	<path fill="#1885BB" d="M33.571,279.765h-1.607v-4.629h-0.647v-1.367h0.647v-0.264c0-1.727,0.444-2.279,1.751-2.279
		c0.396,0,1.368,0.156,1.368,0.156l-0.024,1.307c0,0-0.528-0.024-0.912-0.024c-0.456,0-0.576,0.24-0.576,0.852v0.252h1.451v1.367
		h-1.451V279.765z"/>
	<path fill="#1885BB" d="M35.96,271.37h1.607v1.631H35.96V271.37z M35.96,273.769h1.607v5.997H35.96V273.769z"/>
	<path fill="#1885BB" d="M39.128,271.37h1.607v8.396h-1.607V271.37z"/>
	<path fill="#1885BB" d="M47.045,278.386l0.024,1.188c0,0-1.379,0.336-2.495,0.336c-1.811,0-2.579-0.899-2.579-3.059
		c0-2.135,0.899-3.226,2.65-3.226c1.763,0,2.615,0.899,2.615,2.71l-0.12,1.115h-3.526c0.012,0.72,0.348,1.043,1.211,1.043
		C45.81,278.494,47.045,278.386,47.045,278.386z M45.678,276.227c0-0.971-0.275-1.283-1.031-1.283c-0.768,0-1.031,0.372-1.043,1.283
		H45.678z"/>
</g>
<g>
	<g>
		<path fill="#FFFFFF" d="M12.161,326.5c-2.27,0-4.115-1.846-4.115-4.113v-24.354c0-2.271,1.846-4.115,4.115-4.115h24.354
			c2.268,0,4.113,1.846,4.113,4.115v24.354c0,2.27-1.846,4.113-4.113,4.113H12.161z"/>
		<path fill="#1885BB" d="M36.513,294.418c1.994,0,3.615,1.622,3.615,3.615v24.354c0,1.992-1.621,3.613-3.615,3.613H12.159
			c-1.992,0-3.615-1.621-3.615-3.613v-24.354c0-1.993,1.623-3.615,3.615-3.615H36.513 M36.513,293.418H12.159
			c-2.547,0-4.615,2.066-4.615,4.615v24.354c0,2.547,2.068,4.613,4.615,4.613h24.354c2.549,0,4.615-2.066,4.615-4.613v-24.354
			C41.128,295.484,39.062,293.418,36.513,293.418L36.513,293.418z"/>
	</g>
	<g>
		<path fill="#1885BB" d="M22.444,306.414h1.326v6.148h2.982v1.108h-4.309V306.414L22.444,306.414z"/>
	</g>
</g>
<g>
	<line fill="none" stroke="#1885BB" stroke-miterlimit="10" x1="104" y1="284.5" x2="195" y2="284.5"/>
	<g>
		<path fill="#1885BB" d="M104.744,273.769h1.596v0.324c0,0,0.779-0.468,1.367-0.468c1.582,0,2.362,0.864,2.362,3.094
			c0,2.555-0.888,3.19-2.723,3.19c-0.444,0-0.995-0.096-0.995-0.096v2.471h-1.607V273.769z M106.352,275.304v3.142
			c0,0,0.539,0.072,0.875,0.072c0.959,0,1.211-0.527,1.211-1.799c0-1.211-0.407-1.655-1.043-1.655
			C106.902,275.063,106.352,275.304,106.352,275.304z"/>
		<path fill="#1885BB" d="M115.865,278.134c0.023,0.36,0.072,0.504,0.396,0.564l-0.049,1.211c-0.803,0-1.211-0.084-1.715-0.42
			c0,0-0.863,0.42-1.763,0.42c-1.26,0-1.859-0.696-1.859-1.967c0-1.355,0.78-1.739,2.099-1.835l1.283-0.096v-0.372
			c0-0.516-0.228-0.648-0.707-0.648c-0.791,0-2.255,0.096-2.255,0.096l-0.048-1.116c0,0,1.283-0.348,2.435-0.348
			c1.56,0,2.183,0.612,2.183,2.015V278.134z M113.167,277.223c-0.42,0.036-0.672,0.24-0.672,0.671c0,0.42,0.156,0.708,0.588,0.708
			c0.516,0,1.175-0.192,1.175-0.192v-1.283L113.167,277.223z"/>
		<path fill="#1885BB" d="M119.251,275.136v2.458c0,0.6,0,0.875,0.503,0.875c0.336,0,0.912-0.024,0.912-0.024l0.072,1.283
			c0,0-0.804,0.18-1.224,0.18c-1.451,0-1.871-0.552-1.871-2.279v-2.495h-0.708v-1.367h0.708v-1.667h1.607v1.667h1.476v1.367H119.251
			z"/>
		<path fill="#1885BB" d="M121.771,279.765v-8.396h1.607v2.687c0,0,0.828-0.432,1.487-0.432c1.679,0,2.11,1.055,2.11,2.891v3.25
			h-1.606v-3.214c0-0.899-0.12-1.487-0.899-1.487c-0.527,0-1.092,0.192-1.092,0.192v4.509H121.771z"/>
		<path fill="#1885BB" d="M131.047,279.765v-5.997h1.596v0.336c0,0,0.827-0.48,1.415-0.48c0.672,0,1.14,0.18,1.499,0.563
			c0,0,1.104-0.563,2.016-0.563c1.631,0,2.11,0.959,2.11,2.891v3.25h-1.607v-3.202c0-0.912-0.12-1.5-0.839-1.5
			c-0.48,0-1.115,0.228-1.115,0.228s0.047,0.899,0.047,1.367v3.106h-1.606v-3.083c0-1.079-0.097-1.619-0.84-1.619
			c-0.527,0-1.067,0.216-1.067,0.216v4.485H131.047z"/>
		<path fill="#1885BB" d="M146.32,276.755c0,1.847-0.672,3.154-2.758,3.154c-2.088,0-2.76-1.308-2.76-3.154
			c0-1.847,0.672-3.13,2.76-3.13C145.648,273.625,146.32,274.908,146.32,276.755z M144.689,276.755c0-1.164-0.24-1.763-1.127-1.763
			c-0.889,0-1.128,0.6-1.128,1.763c0,1.163,0.239,1.787,1.128,1.787C144.449,278.542,144.689,277.918,144.689,276.755z"/>
		<path fill="#1885BB" d="M152.596,279.765h-1.595v-0.252c0,0-0.839,0.396-1.451,0.396c-1.812,0-2.339-1.056-2.339-3.167
			c0-2.195,0.852-3.118,2.482-3.118c0.444,0,1.296,0.168,1.296,0.168v-2.423h1.606V279.765z M150.989,278.29v-3.154
			c0,0-0.659-0.12-1.176-0.12c-0.6,0-0.972,0.516-0.972,1.727c0,1.224,0.229,1.727,0.984,1.727
			C150.389,278.47,150.989,278.29,150.989,278.29z"/>
		<path fill="#1885BB" d="M158.836,278.386l0.024,1.188c0,0-1.38,0.336-2.495,0.336c-1.811,0-2.578-0.899-2.578-3.059
			c0-2.135,0.899-3.226,2.65-3.226c1.764,0,2.615,0.899,2.615,2.71l-0.121,1.115h-3.525c0.012,0.72,0.348,1.043,1.211,1.043
			C157.602,278.494,158.836,278.386,158.836,278.386z M157.469,276.227c0-0.971-0.275-1.283-1.031-1.283
			c-0.768,0-1.031,0.372-1.043,1.283H157.469z"/>
	</g>
</g>
<g>
	<line fill="none" stroke="#1885BB" stroke-miterlimit="10" x1="6" y1="350.5" x2="192" y2="350.5"/>
	<g>
		<path fill="#1885BB" d="M6.693,340.084h1.595v0.324c0,0,0.779-0.469,1.367-0.469c1.583,0,2.363,0.864,2.363,3.095
			c0,2.555-0.888,3.19-2.723,3.19c-0.444,0-0.996-0.096-0.996-0.096v2.471H6.693V340.084z M8.3,341.619v3.143
			c0,0,0.54,0.071,0.875,0.071c0.959,0,1.211-0.527,1.211-1.799c0-1.212-0.408-1.655-1.043-1.655
			C8.852,341.379,8.3,341.619,8.3,341.619z"/>
		<path fill="#1885BB" d="M13.293,337.686H14.9v8.395h-1.607V337.686z"/>
		<path fill="#1885BB" d="M21.054,344.449c0.024,0.359,0.072,0.504,0.396,0.564l-0.048,1.211c-0.804,0-1.211-0.084-1.715-0.42
			c0,0-0.863,0.42-1.763,0.42c-1.259,0-1.859-0.695-1.859-1.967c0-1.355,0.78-1.739,2.099-1.836l1.283-0.096v-0.371
			c0-0.516-0.228-0.648-0.708-0.648c-0.792,0-2.255,0.097-2.255,0.097l-0.048-1.116c0,0,1.283-0.348,2.435-0.348
			c1.559,0,2.183,0.612,2.183,2.016V344.449z M18.356,343.538c-0.42,0.036-0.672,0.239-0.672,0.671c0,0.42,0.156,0.708,0.588,0.708
			c0.516,0,1.175-0.192,1.175-0.192v-1.283L18.356,343.538z"/>
		<path fill="#1885BB" d="M23.54,340.084l1.091,4.629h0.276l1.092-4.629h1.583l-2.111,8.516H23.9l0.66-2.52h-1.127l-1.475-5.996
			H23.54z"/>
		<path fill="#1885BB" d="M31.363,337.469l1.416,0.504l-3.454,8.516l-1.416-0.504L31.363,337.469z"/>
		<path fill="#1885BB" d="M33.609,340.084h1.595v0.324c0,0,0.779-0.469,1.367-0.469c1.583,0,2.363,0.864,2.363,3.095
			c0,2.555-0.888,3.19-2.723,3.19c-0.444,0-0.996-0.096-0.996-0.096v2.471h-1.607V340.084z M35.216,341.619v3.143
			c0,0,0.54,0.071,0.875,0.071c0.959,0,1.211-0.527,1.211-1.799c0-1.212-0.408-1.655-1.043-1.655
			C35.768,341.379,35.216,341.619,35.216,341.619z"/>
		<path fill="#1885BB" d="M44.73,344.449c0.024,0.359,0.072,0.504,0.396,0.564l-0.048,1.211c-0.804,0-1.211-0.084-1.715-0.42
			c0,0-0.863,0.42-1.763,0.42c-1.259,0-1.859-0.695-1.859-1.967c0-1.355,0.78-1.739,2.099-1.836l1.283-0.096v-0.371
			c0-0.516-0.228-0.648-0.708-0.648c-0.792,0-2.255,0.097-2.255,0.097l-0.048-1.116c0,0,1.283-0.348,2.435-0.348
			c1.559,0,2.183,0.612,2.183,2.016V344.449z M42.032,343.538c-0.42,0.036-0.672,0.239-0.672,0.671c0,0.42,0.156,0.708,0.588,0.708
			c0.516,0,1.175-0.192,1.175-0.192v-1.283L42.032,343.538z"/>
		<path fill="#1885BB" d="M51.414,340.084v5.996h-1.595v-0.336c0,0-0.863,0.48-1.499,0.48c-1.751,0-2.111-0.972-2.111-2.998v-3.143
			h1.607v3.166c0,1.067,0.048,1.535,0.84,1.535c0.6,0,1.151-0.216,1.151-0.216v-4.485H51.414z"/>
		<path fill="#1885BB" d="M57.21,341.583c0,0-1.487-0.192-2.183-0.192c-0.695,0-0.839,0.156-0.839,0.48
			c0,0.275,0.228,0.336,1.331,0.539c1.392,0.252,1.883,0.66,1.883,1.871c0,1.403-0.912,1.943-2.411,1.943
			c-0.888,0-2.303-0.288-2.303-0.288l0.048-1.343c0,0,1.487,0.191,2.099,0.191c0.768,0,0.972-0.156,0.972-0.468
			c0-0.264-0.132-0.384-1.235-0.563c-1.295-0.216-1.979-0.527-1.979-1.848c0-1.391,1.056-1.954,2.315-1.954
			c0.863,0,2.327,0.3,2.327,0.3L57.21,341.583z"/>
		<path fill="#1885BB" d="M63.318,344.701l0.024,1.188c0,0-1.379,0.336-2.495,0.336c-1.811,0-2.579-0.899-2.579-3.059
			c0-2.135,0.899-3.227,2.65-3.227c1.763,0,2.615,0.9,2.615,2.711l-0.12,1.115h-3.526c0.012,0.72,0.348,1.043,1.211,1.043
			C62.083,344.809,63.318,344.701,63.318,344.701z M61.95,342.543c0-0.972-0.275-1.283-1.031-1.283
			c-0.768,0-1.031,0.371-1.043,1.283H61.95z"/>
	</g>
	<g>
		<g>
			<path fill="#FFFFFF" d="M12.159,397.302c-2.269,0-4.115-1.846-4.115-4.115v-28.838c0-2.27,1.847-4.115,4.115-4.115h174.062
				c2.268,0,4.111,1.847,4.111,4.115v28.838c0,2.271-1.844,4.115-4.111,4.115H12.159z"/>
			<path fill="#1885BB" d="M186.222,360.733c1.992,0,3.611,1.623,3.611,3.615v28.838c0,1.993-1.619,3.615-3.611,3.615H12.159
				c-1.994,0-3.615-1.622-3.615-3.615v-28.838c0-1.992,1.623-3.615,3.615-3.615H186.222 M186.222,359.733H12.159
				c-2.549,0-4.615,2.066-4.615,4.615v28.838c0,2.549,2.066,4.615,4.615,4.615h174.062c2.549,0,4.611-2.066,4.611-4.615v-28.838
				C190.833,361.8,188.769,359.733,186.222,359.733L186.222,359.733z"/>
		</g>
	</g>
</g>
<line fill="none" stroke="#1885BB" stroke-miterlimit="10" x1="6" y1="421.5" x2="192" y2="421.5"/>
<g>
	<path fill="#1885BB" d="M6.405,414.166c0-2.578,0.864-3.227,2.975-3.227c0.695,0,2.339,0.156,2.339,0.156v8.504h-1.607V416.9
		c0,0-0.768,0.324-1.295,0.324C7.185,417.225,6.405,416.469,6.405,414.166z M8.013,414.166c0,1.211,0.396,1.619,1.02,1.619
		c0.479,0,1.079-0.156,1.079-0.156v-3.25c0,0-0.444-0.048-0.731-0.048C8.276,412.331,8.013,412.871,8.013,414.166z"/>
	<path fill="#1885BB" d="M18.354,411.084v5.996h-1.595v-0.336c0,0-0.863,0.48-1.499,0.48c-1.751,0-2.111-0.972-2.111-2.998v-3.143
		h1.607v3.166c0,1.067,0.048,1.535,0.84,1.535c0.6,0,1.151-0.216,1.151-0.216v-4.485H18.354z"/>
	<path fill="#1885BB" d="M19.845,408.686h1.607v1.631h-1.607V408.686z M19.845,411.084h1.607v5.996h-1.607V411.084z"/>
	<path fill="#1885BB" d="M24.788,412.451v2.459c0,0.6,0,0.875,0.503,0.875c0.336,0,0.912-0.023,0.912-0.023l0.072,1.283
		c0,0-0.803,0.18-1.223,0.18c-1.451,0-1.871-0.552-1.871-2.279v-2.494h-0.708v-1.367h0.708v-1.667h1.607v1.667h1.475v1.367H24.788z"
		/>
	<path fill="#1885BB" d="M29.949,411.084h1.595v0.324c0,0,0.779-0.469,1.367-0.469c1.583,0,2.363,0.864,2.363,3.095
		c0,2.555-0.888,3.19-2.723,3.19c-0.444,0-0.996-0.096-0.996-0.096v2.471h-1.607V411.084z M31.556,412.619v3.143
		c0,0,0.54,0.071,0.875,0.071c0.959,0,1.211-0.527,1.211-1.799c0-1.212-0.408-1.655-1.043-1.655
		C32.107,412.379,31.556,412.619,31.556,412.619z"/>
	<path fill="#1885BB" d="M36.477,411.084h1.595v0.636c0,0,1.007-0.601,1.919-0.78v1.619c-1.056,0.204-1.907,0.504-1.907,0.504v4.018
		h-1.607V411.084z"/>
	<path fill="#1885BB" d="M46.146,414.07c0,1.847-0.672,3.154-2.758,3.154c-2.087,0-2.759-1.308-2.759-3.154
		c0-1.848,0.672-3.131,2.759-3.131C45.474,410.939,46.146,412.223,46.146,414.07z M44.515,414.07c0-1.164-0.24-1.764-1.127-1.764
		c-0.888,0-1.127,0.6-1.127,1.764c0,1.163,0.24,1.787,1.127,1.787C44.274,415.857,44.515,415.233,44.515,414.07z"/>
	<path fill="#1885BB" d="M47.024,418.172c0-0.552,0.264-0.959,0.863-1.428c-0.264-0.18-0.443-0.539-0.443-0.911
		c0-0.3,0.467-0.959,0.467-0.959c-0.419-0.3-0.815-0.743-0.815-1.787c0-1.548,1.116-2.123,2.519-2.123
		c0.528,0,1.211,0.155,1.211,0.155l1.931-0.059v1.283l-0.9-0.072c0.108,0.168,0.264,0.467,0.264,0.815
		c0,1.679-0.888,2.11-2.531,2.11c-0.132,0-0.384-0.023-0.492-0.048c0,0-0.12,0.312-0.12,0.468c0,0.312,0.144,0.384,1.163,0.396
		c2.039,0.012,2.615,0.467,2.615,1.811c0,1.463-1.295,2.015-2.843,2.015C48.164,419.839,47.024,419.516,47.024,418.172z
		 M48.931,417.32c-0.204,0.204-0.324,0.384-0.324,0.684c0,0.348,0.42,0.516,1.319,0.516c0.779,0,1.211-0.168,1.211-0.6
		c0-0.455-0.24-0.504-1.127-0.516C49.675,417.404,48.931,417.32,48.931,417.32z M50.539,413.087c0-0.563-0.264-0.876-0.912-0.876
		s-0.923,0.312-0.923,0.876s0.276,0.888,0.923,0.888S50.539,413.65,50.539,413.087z"/>
	<path fill="#1885BB" d="M53.732,411.084h1.595v0.636c0,0,1.007-0.601,1.919-0.78v1.619c-1.056,0.204-1.907,0.504-1.907,0.504v4.018
		h-1.607V411.084z"/>
	<path fill="#1885BB" d="M62.789,415.449c0.024,0.359,0.072,0.504,0.396,0.564l-0.048,1.211c-0.804,0-1.211-0.084-1.715-0.42
		c0,0-0.863,0.42-1.763,0.42c-1.26,0-1.859-0.695-1.859-1.967c0-1.355,0.78-1.739,2.099-1.836l1.283-0.096v-0.371
		c0-0.516-0.228-0.648-0.708-0.648c-0.792,0-2.255,0.097-2.255,0.097l-0.048-1.116c0,0,1.283-0.348,2.435-0.348
		c1.559,0,2.183,0.612,2.183,2.016V415.449z M60.091,414.538c-0.42,0.036-0.672,0.239-0.672,0.671c0,0.42,0.156,0.708,0.588,0.708
		c0.516,0,1.175-0.192,1.175-0.192v-1.283L60.091,414.538z"/>
	<path fill="#1885BB" d="M64.328,417.08v-5.996h1.595v0.336c0,0,0.827-0.48,1.415-0.48c0.672,0,1.14,0.18,1.499,0.564
		c0,0,1.104-0.564,2.015-0.564c1.631,0,2.111,0.96,2.111,2.891v3.25h-1.607v-3.201c0-0.912-0.12-1.5-0.839-1.5
		c-0.479,0-1.115,0.229-1.115,0.229s0.048,0.898,0.048,1.367v3.105h-1.607v-3.082c0-1.079-0.096-1.619-0.84-1.619
		c-0.527,0-1.067,0.217-1.067,0.217v4.484H64.328z"/>
</g>
<line fill="none" stroke="#1885BB" stroke-miterlimit="10" x1="-0.5" y1="581" x2="-0.5" y2="1"/>
<g>
	<path fill="#FFFFFF" d="M12.157,449.842c-2.27,0-4.113-1.846-4.113-4.112v-10.384c0-2.268,1.844-4.112,4.113-4.112h24.354
		c2.27,0,4.115,1.846,4.115,4.112v10.384c0,2.268-1.846,4.112-4.115,4.112H12.157z"/>
	<path fill="#1885BB" d="M36.511,431.733c1.994,0,3.615,1.621,3.615,3.612v10.384c0,1.991-1.623,3.612-3.615,3.612H12.157
		c-1.992,0-3.613-1.621-3.613-3.612v-10.384c0-1.991,1.621-3.612,3.613-3.612H36.511 M36.511,430.733H12.157
		c-2.549,0-4.613,2.063-4.613,4.612v10.384c0,2.549,2.064,4.612,4.613,4.612h24.354c2.549,0,4.615-2.063,4.615-4.612v-10.384
		C41.126,432.799,39.06,430.733,36.511,430.733L36.511,430.733z"/>
	<path fill="#FFFFFF" d="M12.157,449.842c-2.27,0-4.113-1.846-4.113-4.112v-10.384c0-2.268,1.844-4.112,4.113-4.112h24.354
		c2.27,0,4.115,1.846,4.115,4.112v10.384c0,2.268-1.846,4.112-4.115,4.112H12.157z"/>
	<path fill="#1885BB" d="M36.511,431.733c1.994,0,3.615,1.621,3.615,3.612v10.384c0,1.991-1.623,3.612-3.615,3.612H12.157
		c-1.992,0-3.613-1.621-3.613-3.612v-10.384c0-1.991,1.621-3.612,3.613-3.612H36.511 M36.511,430.733H12.157
		c-2.549,0-4.613,2.063-4.613,4.612v10.384c0,2.549,2.064,4.612,4.613,4.612h24.354c2.549,0,4.615-2.063,4.615-4.612v-10.384
		C41.126,432.799,39.06,430.733,36.511,430.733L36.511,430.733z"/>
	<path fill="#1885BB" d="M19.149,441.42c0.027,0.776,0.639,1.112,1.326,1.112c0.504,0,0.867-0.067,1.193-0.192l0.16,0.752
		c-0.371,0.147-0.885,0.272-1.502,0.272c-1.398,0-2.221-0.867-2.221-2.185c0-1.192,0.727-2.317,2.105-2.317
		c1.406,0,1.855,1.149,1.855,2.099c0,0.2-0.016,0.36-0.035,0.459H19.149z M21.042,440.659c0.008-0.397-0.168-1.053-0.893-1.053
		c-0.672,0-0.957,0.608-1,1.053H21.042z"/>
	<path fill="#1885BB" d="M22.892,442.266c0.248,0.15,0.715,0.312,1.105,0.312c0.477,0,0.688-0.192,0.688-0.477
		c0-0.294-0.176-0.443-0.707-0.63c-0.838-0.291-1.191-0.75-1.184-1.256c0-0.762,0.627-1.354,1.625-1.354
		c0.479,0,0.895,0.125,1.141,0.258l-0.211,0.768c-0.186-0.104-0.531-0.246-0.91-0.246c-0.391,0-0.602,0.187-0.602,0.451
		c0,0.273,0.203,0.404,0.752,0.603c0.777,0.28,1.139,0.68,1.148,1.317c0,0.777-0.611,1.353-1.752,1.353
		c-0.52,0-0.988-0.133-1.309-0.31L22.892,442.266z"/>
	<path fill="#1885BB" d="M29.798,443.135c-0.23,0.104-0.682,0.229-1.221,0.229c-1.344,0-2.219-0.867-2.219-2.203
		c0-1.289,0.885-2.299,2.396-2.299c0.396,0,0.803,0.09,1.051,0.205l-0.193,0.812c-0.178-0.078-0.434-0.166-0.822-0.166
		c-0.832,0-1.326,0.609-1.318,1.396c0,0.885,0.576,1.389,1.318,1.389c0.381,0,0.645-0.079,0.857-0.168L29.798,443.135z"/>
</g>
<g>
	<g>
		<path fill="#FFFFFF" d="M110.155,326.5c-2.268,0-4.111-1.846-4.111-4.113v-24.352c0-2.271,1.844-4.117,4.111-4.117h24.355
			c2.27,0,4.113,1.848,4.113,4.117v24.352c0,2.27-1.846,4.113-4.113,4.113H110.155z"/>
		<path fill="#1885BB" d="M134.513,294.418c1.992,0,3.611,1.623,3.611,3.617v24.352c0,1.992-1.619,3.613-3.611,3.613h-24.355
			c-1.992,0-3.613-1.621-3.613-3.613v-24.352c0-1.994,1.621-3.617,3.613-3.617H134.513 M134.513,293.418h-24.355
			c-2.547,0-4.613,2.066-4.613,4.617v24.352c0,2.547,2.066,4.613,4.613,4.613h24.355c2.549,0,4.611-2.066,4.611-4.613v-24.352
			C139.124,295.484,137.06,293.418,134.513,293.418L134.513,293.418z"/>
	</g>
	<g>
		<path fill="#1885BB" d="M124.772,310.537c-0.043-0.938-0.098-2.066-0.086-3.057h-0.031c-0.238,0.893-0.539,1.873-0.861,2.789
			l-1.057,3.143h-1.021l-0.969-3.102c-0.281-0.926-0.539-1.916-0.732-2.83h-0.021c-0.033,0.957-0.074,2.109-0.127,3.1l-0.162,2.92
			h-1.238l0.484-7.26h1.744l0.945,2.92c0.26,0.85,0.486,1.711,0.668,2.52h0.031c0.195-0.787,0.441-1.68,0.725-2.531l1.002-2.908
			h1.721l0.42,7.26h-1.291L124.772,310.537z"/>
	</g>
</g>
<g>
</g>
<g>
</g>
<g>
</g>
<g>
</g>
<g>
</g>
<g>
</g>
<g>
</g>
<g>
</g>
<g>
</g>
<g>
</g>
<g>
</g>
<g>
</g>
<g>
</g>
<g>
</g>
<g>
</g>
</svg>
