<?xml version="1.0" encoding="utf-8"?>
<!-- Generator: Adobe Illustrator 16.0.0, SVG Export Plug-In . SVG Version: 6.00 Build 0)  -->
<!DOCTYPE svg PUBLIC "-//W3C//DTD SVG 1.1//EN" "http://www.w3.org/Graphics/SVG/1.1/DTD/svg11.dtd">
<svg version="1.1" id="Layer_1" xmlns="http://www.w3.org/2000/svg" xmlns:xlink="http://www.w3.org/1999/xlink" x="0px" y="0px"
	 width="540.844px" height="275.938px" viewBox="0 0 540.844 275.938" enable-background="new 0 0 540.844 275.938"
	 xml:space="preserve">
<g id="N0qXj0.tif">
	<g>
		<g>
			<path fill-rule="evenodd" clip-rule="evenodd" fill="#1885BB" d="M465.161,132.291c-4.749,1.787-9.394,3.549-14.045,5.285
				c-5.65,2.108-11.307,4.192-16.959,6.295c-3.88,1.443-7.757,2.902-11.634,4.35c-3.786,1.413-7.571,2.833-11.364,4.231
				c-8.411,3.104-16.822,6.201-25.24,9.288c-4.976,1.825-9.964,3.616-14.937,5.441c-7.543,2.767-15.096,5.515-22.618,8.335
				c-6.574,2.462-13.102,5.057-19.682,7.504c-5.051,1.88-10.155,3.62-15.235,5.423c-0.661,0.234-1.445,0.32-1.951,0.742
				c-0.428,0.354-0.696,1.083-0.742,1.668c-0.104,1.386-0.035,2.785-0.035,4.194c-1.268-0.41-1.268-0.41-0.985-5.23
				c-2.228,0.851-4.412,1.725-6.624,2.521c-4.219,1.52-8.463,2.962-12.676,4.496c-5.186,1.89-10.35,3.833-15.52,5.767
				c-4.543,1.698-9.079,3.416-13.617,5.128c-2.619,0.988-5.221,2.025-7.859,2.961c-5.542,1.964-11.122,3.826-16.653,5.823
				c-5.24,1.89-10.436,3.904-15.657,5.848c-2.433,0.907-4.878,1.776-7.32,2.657c-3.231,1.167-6.503,2.24-9.679,3.543
				c-1.206,0.494-2.048,0.414-3.177-0.168c-2.893-1.491-5.886-2.789-8.84-4.164c-2.983-1.387-5.967-2.772-8.95-4.16
				c-6.563-3.054-13.144-6.069-19.682-9.173c-5.367-2.55-10.658-5.258-16.027-7.799c-4.708-2.227-9.5-4.277-14.218-6.483
				c-5.332-2.494-10.613-5.094-15.933-7.61c-4.972-2.354-9.987-4.616-14.944-6.995c-5.589-2.684-11.129-5.465-16.702-8.181
				c-3.053-1.488-6.146-2.896-9.18-4.423c-0.401-0.203-0.789-0.896-0.784-1.36c0.024-2.371,0.233-4.738,0.272-7.109
				c0.036-2.223-0.06-4.447-0.1-6.671c-0.019-0.978-0.191-1.759,1.246-2.203c4.788-1.484,9.476-3.286,14.233-4.873
				c4.531-1.512,9.114-2.87,13.654-4.358c6.061-1.99,12.093-4.064,18.153-6.055c4.408-1.449,8.851-2.794,13.264-4.233
				c2.555-0.833,5.13-1.644,7.606-2.679c2.297-0.961,4.718-1.479,7.053-2.288c2.403-0.832,4.85-1.538,7.268-2.331
				c4.451-1.459,8.894-2.948,13.344-4.411c2.978-0.98,5.967-1.931,8.946-2.904c3.327-1.088,6.646-2.199,9.974-3.28
				c4.517-1.469,9.044-2.901,13.557-4.383c3.595-1.18,7.162-2.448,10.764-3.607c3.308-1.064,6.685-1.928,9.954-3.096
				c1.541-0.551,3.292-0.867,4.173-2.73c0.756-1.599,2.446-2.116,4.112-2.553c1.76-0.462,3.489-1.062,5.187-1.72
				c0.324-0.125,0.479-0.785,0.637-1.226c1.341-3.763,2.655-7.535,4.004-11.294c0.177-0.495,0.499-0.938,1.024-1.898
				c0.236,0.831,0.514,1.252,0.413,1.541c-1.479,4.212-3.007,8.406-4.566,12.722c1.73,0.626,3.034,1.606,5.065,0.679
				c2.924-1.334,6.121-2.063,9.18-3.117c4.783-1.648,9.517-3.444,14.326-5.008c4.753-1.545,9.597-2.81,14.355-4.332
				c4.431-1.417,8.799-3.034,13.208-4.522c3.209-1.083,6.439-2.099,9.663-3.142c4.01-1.298,8.042-2.531,12.019-3.922
				c1.456-0.509,2.921-0.792,4.376-1.697c2.208-1.369,5.135-1.558,7.737-2.311c1.874-0.542,3.459,0.383,5.086,0.938
				c2.71,0.921,5.345,2.051,8.035,3.023c2.541,0.917,5.125,1.709,7.669,2.618c4.889,1.745,9.754,3.555,14.654,5.261
				c0.396,0.136,1.235-0.179,1.462-0.54c0.985-1.552,1.796-3.213,2.713-4.811c1.061-1.845,2.169-3.664,3.287-5.546
				c0.483,1.371-3.637,9.671-5.73,11.529c1.251,0.494,2.405,1.001,3.595,1.406c5.008,1.712,10.067,3.289,15.036,5.112
				c6.879,2.524,13.663,5.299,20.541,7.825c4.402,1.617,8.907,2.946,13.348,4.464c3.78,1.294,7.533,2.674,11.3,4.019
				c4.528,1.616,9.063,3.214,13.585,4.857c4.372,1.591,8.726,3.238,13.099,4.84c2.123,0.778,4.305,1.42,6.382,2.308
				c0.594,0.253,1.287,1.137,1.303,1.747c0.098,3.877,0.02,7.757,0.004,11.637C465.157,130.571,465.161,131.424,465.161,132.291z
				 M309.178,105.248c-1.922-0.797-3.841-1.596-5.763-2.393c-0.07,0.201-0.14,0.402-0.211,0.603
				c0.895,0.365,1.786,0.732,2.681,1.097c-0.046,0.118-0.091,0.236-0.137,0.354c-4.308-1.498-8.612-2.995-13.004-4.523
				c-0.188,1.022-0.312,1.698-0.422,2.297c8.882,3.367,17.747,6.729,26.729,10.134c-0.094-5.081-0.094-5.081-0.976-5.148
				c0.224,0.271,0.444,0.539,0.85,1.03c-1.754-0.523-3.229-0.964-4.703-1.405C312.54,106.612,310.857,105.929,309.178,105.248z
				 M330.241,99.702c1.374-0.597,2.771-1.145,4.116-1.802c2.198-1.073,4.363-2.216,6.542-3.329c0.104,0.204,0.207,0.409,0.311,0.613
				c-2.308,1.188-4.615,2.377-7.144,3.678c0.667,0.172,1.189,0.478,1.64,0.396c2.681-0.495,5.29-1.486,8.098-0.979
				c0.233,0.042,0.512-0.144,0.768-0.229c1.128-0.377,2.253-0.756,3.381-1.134c0.117,0.117,0.236,0.234,0.354,0.352
				c-0.953,2.141-1.909,4.282-2.875,6.45c0.71,0.288,1.371,0.555,2.032,0.822c-0.017,0.14-0.036,0.278-0.056,0.417
				c-2.547,0-5.108-0.154-7.643,0.044c-2.612,0.203-5.202,0.751-7.936,1.168c0.908-0.705,1.129-2.172,2.643-1.875
				c1.008,0.198,1.659,0.215,2.032-1.106c0.314-1.113,1.28-2.043,1.98-3.091c-1.783-0.583-3.754,1.309-5.219-0.851
				c-4.298,2.223-8.548,4.422-12.801,6.621c0.02,0.136,0.036,0.272,0.053,0.408c0.278,0,0.605,0.098,0.823-0.014
				c2.8-1.433,5.575-2.911,8.379-4.335c0.396-0.2,0.904-0.172,1.361-0.25c0.02,0.12,0.042,0.239,0.062,0.359
				c-2.914,1.564-5.831,3.128-8.934,4.791c2.545,0.397,4.946,2.312,5.06,5.904c1.589,0.541,3.209,0.982,4.717,1.671
				c0.531,0.243,1.03,1.076,1.082,1.681c0.039,0.477-0.566,1.069-0.991,1.507c-0.37,0.383-0.853,0.707-1.349,0.903
				c-1.974,0.779-3.433,3.266-6.116,1.619c-0.247,1.209-0.447,2.188-0.661,3.225c0.976,0.331,1.873,0.552,2.699,0.931
				c1.339,0.609,2.51,0.521,3.757-0.312c1.938-1.291,3.938-2.499,5.968-3.643c3.339-1.887,6.752-3.644,10.077-5.553
				c3.427-1.968,6.752-4.11,10.179-6.071c4.158-2.382,8.382-4.655,12.573-6.978c3.686-2.042,7.38-4.068,11.046-6.142
				c2.83-1.602,5.624-3.269,8.525-4.96c-0.227-0.131-0.344-0.229-0.479-0.272c-3.08-1.009-6.179-1.965-9.241-3.028
				c-3.975-1.379-7.906-2.871-11.887-4.223c-0.363-0.124-1.111,0.292-1.406,0.671c-1.073,1.389-2.02,2.873-3.024,4.313
				c-0.46,0.657-0.94,1.297-1.462,2.016c0.421,0.263,0.684,0.452,0.966,0.595c1.433,0.729,1.987,1.9,1.851,3.479
				c-0.146,1.686-1.111,2.892-2.566,3.375c-3.229,1.069-6.522,1.118-9.783-0.073c-2.311-0.844-3.111-1.792-2.959-3.702
				c0.136-1.711,2.236-4.116,3.812-4.444c0.82-0.171,1.614-0.47,2.6-0.764c0.956,0.124,2.236,0.097,3.371,0.491
				c1.297,0.451,1.938,0.13,2.661-0.97c1.231-1.882,2.668-3.631,4.23-5.72c-1.579-0.479-2.934-1.376-3.955-1.088
				c-1.614,0.455-3.005,1.704-4.185,2.429c0.363,0.751,0.697,1.449,1.034,2.146c-0.732,0.229-1.491,0.698-2.191,0.621
				c-0.735-0.082-1.413-0.686-2.175-1.092c-12.148,6.458-24.355,12.949-36.56,19.439c0.059,0.144,0.12,0.286,0.182,0.429
				c0.298-0.038,0.639,0.007,0.888-0.127c4.373-2.375,8.727-4.786,13.103-7.158c5.318-2.881,10.647-5.737,15.986-8.581
				c0.295-0.158,0.706-0.1,1.062-0.143c-0.042,0.455-0.158,0.581-0.305,0.658c-5.588,2.954-11.179,5.896-16.761,8.863
				c-0.474,0.252-0.865,0.661-1.3,0.99c-1.283,0.523-2.609,0.961-3.838,1.588c-1.831,0.933-3.598,1.998-5.391,3.007
				c1.277-0.239,2.379-0.787,3.455-1.383C326.425,101.881,328.332,100.785,330.241,99.702z M235.355,141.205
				c-0.167,0.086-0.335,0.173-0.502,0.261c-2.32-1.585-3.117-4.14-4.146-6.797c-24.67,8.173-49.25,16.316-74.168,24.572
				c1.473,0.609,2.712,1.051,3.889,1.621c3.654,1.772,7.303,3.559,10.915,5.416c1.48,0.762,2.877,1.693,4.274,2.606
				c0.973,0.634,1.75,1.157,3.006,0.288c2.113-1.458,4.401-2.671,6.652-3.919c0.382-0.212,0.95-0.091,1.433-0.123
				c0.022,0.179,0.045,0.355,0.068,0.532c-2.855,1.646-5.711,3.293-8.628,4.976c1.843,1.29,3.79,2.34,5.341,3.809
				c3.137,2.972,5.425,6.551,6.648,10.761c0.314,1.086,1.037,1.618,2.332,1.618c4.521,0,9.041,0.183,13.562,0.224
				c0.948,0.01,1.898-0.292,2.849-0.449c-0.025-0.159-0.051-0.317-0.076-0.477c-3.474,0-6.947,0.021-10.418-0.021
				c-0.553-0.006-1.101-0.295-1.651-0.453c0.052-0.224,0.103-0.447,0.154-0.67c3.461,0.157,6.922,0.388,10.385,0.439
				c1.774,0.026,3.688,0.528,5.497-0.872c-4.92-0.253-9.644,0.282-14.283-0.755c3.714-0.226,7.43-0.371,11.127-0.172
				c2.269,0.123,5.608,0.398,7.598-1.103c-3.258,0-6.516,0-9.774,0c-0.021-0.214-0.041-0.425-0.061-0.637
				c0.462-0.138,0.927-0.401,1.385-0.391c2.879,0.068,5.756,0.191,8.633,0.316c0.746,0.032,1.571,0.389,2.218,0.17
				c2.185-0.735,4.304-1.666,6.451-2.516c2.544-1.005,5.079-2.04,7.642-2.995c3.139-1.17,6.295-2.29,9.457-3.394
				c3.816-1.332,7.663-2.577,11.458-3.961c1.204-0.44,2.662-0.693,2.941-2.425c0.267-1.643,0.689-3.264,1.087-4.883
				c0.057-0.231,0.363-0.402,0.554-0.602c0.138,0.198,0.412,0.41,0.391,0.589c-0.118,1.02-0.287,2.035-0.476,3.045
				c-0.16,0.854-0.37,1.698-0.623,2.846c23.652-7.494,47.318-13.215,71.204-18.672c-13.42-5.49-26.839-10.981-39.753-16.265
				c-2.538,2.038-4.784,3.87-7.075,5.643c-0.26,0.203-0.775,0.073-1.513,0.118c2.642-2.273,4.865-4.188,7.298-6.281
				c-1.015-0.317-1.529-0.457-2.028-0.641c-4.316-1.59-8.641-3.162-12.929-4.821c-0.574-0.221-0.965-0.911-1.354-1.297
				c-0.162,0.1-0.479,0.452-0.69,0.397c-0.982-0.26-1.923-0.671-2.899-0.954c-1.397-0.405-2.968-1.339-4.192-1.015
				c-5.112,1.352-10.131,3.066-15.169,4.691c-5.803,1.872-11.591,3.791-17.852,5.843
				C232.903,136.846,234.129,139.025,235.355,141.205z M309.927,171.61c50.73-18.244,101.202-36.395,152.066-54.686
				c-24.035-8.577-47.58-16.98-70.971-25.33c-0.485,2.111-1.251,3.896-1.219,5.665c0.056,3.205-2.224,4.165-4.372,5.368
				c-2.36,1.32-4.778,2.541-7.102,3.917c-2.348,1.388-4.571,2.989-6.928,4.362c-5.251,3.062-10.561,6.032-15.837,9.055
				c-2.859,1.64-5.702,3.315-8.554,4.971c-4.133,2.398-8.266,4.794-12.438,7.214c3.18,1.467,6.885,1.885,9.121,4.854
				c2.064,2.739,6.33,3.403,6.875,7.465c2.356-0.068,8.596-3.506,10.434-5.705c0.798-0.956,0.928-0.969,1.764-0.118
				c-3.086,3.653-7.251,5.538-11.617,7.185c-0.006,0.036-0.045,0.149-0.029,0.256c0.594,4.337,0.38,4.678-3.695,5.958
				c-0.359,0.113-0.713,0.256-1.069,0.378c-3.526,1.204-7.04,2.443-10.583,3.595c-1.436,0.467-3.598-1.098-3.475-2.42
				c-7.948,2.863-15.883,5.725-23.676,8.531C309.075,165.4,309.486,168.408,309.927,171.61z M123.919,159.202
				c1.373-1.332,2.594-2.713,4.006-3.854c4.002-3.236,7.985-6.511,12.159-9.514c4.183-3.008,8.576-5.723,12.896-8.538
				c2.785-1.814,5.503-3.77,8.429-5.327c6.38-3.398,12.866-6.595,19.324-9.846c2.078-1.043,4.192-2.016,6.305-2.988
				c1.765-0.809,3.538-1.604,5.334-2.337c3.494-1.427,7.009-2.801,10.51-4.207c0.962-0.386,1.907-0.812,2.859-1.221
				c-0.047-0.099-0.094-0.199-0.141-0.297c-42.174,13.839-84.348,27.679-126.872,41.634c0.775,0.365,1.246,0.596,1.724,0.81
				c2.463,1.104,4.945,2.168,7.387,3.317c3.811,1.794,7.574,3.69,11.396,5.462c4.407,2.042,8.881,3.937,13.276,6.001
				c4.708,2.211,9.33,4.609,14.04,6.815c6.569,3.074,13.248,5.92,19.754,9.119c3.086,1.519,6.06,2.551,9.584,2.294
				c3.589-0.262,7.22,0.057,10.832,0.072c2.298,0.012,4.598-0.086,6.896-0.096c4.125-0.018,8.249-0.005,12.434-0.005
				c0.172-1.189-0.778-1.034-1.595-1.035c-4.014-0.005-8.028,0.013-12.042-0.027c-0.436-0.007-0.869-0.344-1.303-0.528
				c0.057-0.095,0.113-0.187,0.171-0.279c4.688,0,9.377,0,14.616,0c-1.985-2.661-3.742-5.018-5.552-7.442
				c-2.73,2.319,0.153,1.958,0.984,2.694c-0.478,0.231-0.769,0.485-1.074,0.504c-1.709,0.096-3.258-1.041-5.014-0.686
				c-0.042,0.01-0.095-0.052-0.147-0.071c-1.25-0.435-2.223-0.146-2.945,1.225c0.424,0.096,0.769,0.18,1.116,0.25
				c0.678,0.133,1.63,0.02,1.985,0.43c1.141,1.311,2.561,1.227,4.027,1.231c0.284,0.002,0.566,0.18,0.85,0.277
				c-0.039,0.116-0.077,0.233-0.116,0.35c-5.235,0-10.47,0-15.706,0c-0.002-0.196-0.005-0.392-0.009-0.587
				c0.897-0.157,1.795-0.312,2.692-0.468c-0.424-0.417-0.855-0.595-1.231-0.518c-2.206,0.457-4.393,1.002-6.601,1.449
				c-0.469,0.094-1.007-0.06-1.487-0.194c-0.097-0.026-0.167-0.669-0.093-0.707c0.397-0.194,0.856-0.256,1.272-0.418
				c1.2-0.464,2.877,0.026,3.554-1.929c-1.997,0-3.9,0-5.804,0c0.007-0.254,0.015-0.507,0.022-0.762
				c2.052,0.094,4.104,0.185,6.261,0.282c0.621-0.86,1.316-1.825,1.979-2.745c-1.622,0-2.983,0.035-4.338-0.036
				c-0.224-0.013-0.424-0.492-0.636-0.759c0.266-0.071,0.528-0.162,0.798-0.212c1.856-0.337,3.712-0.679,5.574-0.99
				c0.594-0.101,1.202-0.111,1.804-0.164c0.065,0.174,0.13,0.349,0.195,0.523c-1.266,1.791-2.531,3.584-3.938,5.577
				c2.208,0,4.158,0,6.107,0c-0.018-0.264-0.037-0.526-0.054-0.789c-1.048,0.152-2.095,0.307-3.559,0.521
				c1.742-2.086,3.25-3.891,4.917-5.886c2.708,0.217,2.708,0.217,1.806,3.735c2.623,1.064,2.276-2.197,4.289-2.482
				c-8.354-5.911-16.878-10.499-26.154-13.541c-0.431,1.728-0.66,3.487-1.319,5.066c-0.655,1.566-1.742,2.952-2.588,4.333
				c0.354,0.767,0.835,1.518,1.05,2.339c0.338,1.297,1.158,1.708,2.321,1.428c2.125-0.514,4.423,0.265,6.466-0.934
				c0.366-0.214,0.966-0.029,1.785-0.029c-0.331,0.558-0.488,1.142-0.73,1.181c-2.056,0.323-4.123,0.59-6.195,0.784
				c-1.071,0.101-2.16,0.016-3.291,0.016c0,1.641-0.011,3.044,0.004,4.451c0.01,0.967-0.484,1.205-1.347,1.028
				c-0.426-0.087-0.995,0.044-1.275-0.189c-0.638-0.534-1.51-1.18-1.609-1.877c-0.182-1.276,0.144-2.62,0.225-3.938
				c0.023-0.363-0.071-0.731-0.095-0.947c-1.427,0.176-2.759,0.336-4.078,0.496c0,0.328,0.03,0.833-0.007,1.334
				c-0.045,0.599-0.147,1.191-0.225,1.784c-3.256,0.717-3.85-0.123-3.576-2.771c0.057-0.551,0.059-1.111,0.012-1.662
				c-0.053-0.629-0.024-1.344-0.313-1.864c-2.078-3.743-0.955-7.708,2.272-10.617c0.918-0.828,1.897-1.587,2.932-2.445
				c-1.202-0.261-2.42-0.331-3.468-0.789c-3.454-1.509-6.402-0.295-9.133,1.649C126.849,162,126.372,162.049,123.919,159.202z
				 M310.689,188.281c2.285-0.943,4.443-1.916,6.661-2.736c5.51-2.035,11.05-3.988,16.569-5.999c4.36-1.589,8.717-3.196,13.06-4.825
				c7.17-2.688,14.327-5.415,21.497-8.099c3.28-1.23,6.593-2.376,9.877-3.602c5.409-2.021,10.8-4.106,16.22-6.106
				c3.332-1.231,6.723-2.312,10.055-3.546c3.293-1.222,6.538-2.585,9.828-3.818c3.828-1.438,7.695-2.781,11.529-4.207
				c2.609-0.97,5.174-2.062,7.789-3.009c2.155-0.779,4.393-1.348,6.538-2.15c3.231-1.207,6.396-2.597,9.627-3.797
				c4.253-1.582,8.561-3.018,12.797-4.632c0.521-0.198,1.066-1.081,1.103-1.676c0.162-2.801,0.155-5.611,0.2-8.42
				c0.017-0.971,0.004-1.94,0.004-2.964c-51.285,18.488-102.36,36.903-153.354,55.288
				C310.689,178.652,310.689,183.278,310.689,188.281z M231.661,106.603c-16.805,5.301-33.139,11.735-48.991,19.491
				c-15.836,7.747-30.946,16.639-45.204,27.283c3.092,0.863,5.944,1.698,8.82,2.444c1.252,0.323,2.7,0.942,3.806,0.603
				c6.718-2.062,13.354-4.384,20.033-6.573c8.206-2.688,16.421-5.347,24.643-7.987c6.689-2.148,13.408-4.205,20.086-6.387
				c6.526-2.132,13-4.423,19.53-6.546c7.456-2.422,14.95-4.732,22.425-7.099c0.729-0.23,1.446-0.5,2.523-0.872
				c-2.34-0.923-4.317-1.595-6.201-2.467c-3.132-1.452-6.291-2.885-9.27-4.616c-1.887-1.096-4.543-1.089-5.483-3.8
				c-1.742,1.087-3.31,2.401-5.445,1.559c-0.2-0.079-0.6,0.199-0.84,0.393c-3.079,2.481-6.107,5.027-9.251,7.423
				c-0.624,0.475-1.677,0.387-2.532,0.559c0.118-0.502,0.236-1.001,0.435-1.844c-1.137,0.197-2.233,0.389-3.501,0.61
				c0.989,0.85,1.993,1.329,2.367,2.11c0.861,1.794-1.814,6.111-3.86,6.268c-1.4,0.106-2.92,0.097-4.207-0.363
				c-0.69-0.246-1.105-1.521-1.393-2.415c-0.06-0.188,0.977-0.73,1.509-1.11c0.378,0.604,0.757,1.206,1.135,1.808
				c2.076,1.248,3.719-0.113,5.208-4.484c-0.699,0-1.344-0.034-1.984,0.01c-0.584,0.037-1.164,0.157-2.065,0.288
				c0.254-0.55,0.29-0.826,0.424-0.888c1.522-0.695,2.246-2.135,3.267-3.321c0.836-0.971,3.562-0.436,4.451,0.538
				c0.222,0.243,1.048,0.275,1.34,0.06c2.123-1.57,4.118-3.317,6.278-4.832C231.622,111.105,232.68,109.56,231.661,106.603z
				 M356.217,78.928c-2.401-0.856-4.359-1.577-6.334-2.258c-5.156-1.779-10.355-3.448-15.468-5.354
				c-2.243-0.837-4.2-1.113-6.58-0.227c-5.209,1.94-10.563,3.495-15.86,5.195c-5.604,1.797-11.223,3.55-16.817,5.377
				c-5.292,1.729-10.549,3.564-15.843,5.285c-6.418,2.086-12.876,4.047-19.284,6.162c-4.205,1.388-8.347,2.965-12.526,4.429
				c-1.134,0.397-2.305,0.689-3.625,1.08c1.479,1.747,2.686,3.3,4.781,3.869c2.39,0.65,4.742,1.443,7.102,2.199
				c3.799,1.216,7.589,2.46,11.386,3.681c4.064,1.307,8.158,2.527,12.19,3.926c1.883,0.653,3.604,1.094,5.617,0.354
				c2.885-1.063,5.886-1.813,8.826-2.739c0.298-0.096,0.668-0.447,0.728-0.737c0.194-0.958,0.241-1.945,0.384-2.916
				c0.134-0.914-0.214-1.398-1.119-1.654c-0.757-0.214-1.651-0.45-2.142-0.989c-0.791-0.87-0.521-4.258,0.302-5.154
				c1.212-1.32,2.71-1.429,4.342-0.841c2.442,0.879,4.89,1.749,7.363,2.532c0.418,0.132,1.231-0.021,1.429-0.324
				c1.439-2.197,2.769-4.465,4.127-6.713c0.979-1.616,1.947-3.236,2.924-4.854c0.178,0.107,0.359,0.215,0.541,0.322
				c-2.308,4.065-4.616,8.129-6.982,12.295c0.795,0.3,1.728,0.676,2.681,1.004c1.783,0.617,3.407,1.204,5.319-0.176
				c1.857-1.34,4.188-2.007,6.236-3.105c6.688-3.586,13.329-7.252,20.009-10.854c3.634-1.96,7.316-3.835,10.96-5.782
				C352.535,81.078,354.143,80.113,356.217,78.928z M114.883,172.382c-0.049,0.056-0.254,0.174-0.259,0.299
				c-0.136,4.301-0.267,8.603-0.345,12.903c-0.005,0.28,0.34,0.7,0.625,0.832c3.513,1.629,7.07,3.16,10.564,4.828
				c3.46,1.649,6.833,3.484,10.293,5.137c5.027,2.399,10.107,4.688,15.147,7.063c5.13,2.415,10.23,4.897,15.359,7.315
				c4.153,1.958,8.338,3.848,12.496,5.799c2.885,1.355,5.739,2.775,8.62,4.138c3.073,1.454,6.146,2.911,9.249,4.299
				c1.495,0.667,3.059,1.178,4.49,1.723c0.102-1.887,0.211-3.595,0.278-5.308c0.094-2.38,0.257-4.764,0.184-7.14
				c-0.032-1.079-0.117-2.183-1.586-2.826c-4.192-1.835-8.243-3.992-12.392-5.931c-4.4-2.057-8.855-3.995-13.277-6.008
				c-3.676-1.673-7.334-3.384-11.01-5.06c-2.605-1.187-5.235-2.319-7.836-3.514c-3.416-1.572-6.801-3.206-10.221-4.764
				c-2.55-1.162-5.157-2.199-7.698-3.379c-3.228-1.497-6.391-3.135-9.626-4.614C123.619,176.2,119.259,174.317,114.883,172.382z
				 M297.396,161.99c-26.175,6.33-51.67,14.729-76.77,24.878c0.27,0.106,0.44,0.233,0.612,0.233
				c2.113,0.018,4.228,0.003,6.341,0.022c6.267,0.059,12.533,0.12,18.799,0.191c2.08,0.025,4.16,0.113,6.24,0.131
				c2.601,0.021,5.205,0.057,7.804-0.02c2.447-0.072,4.946,0.433,7.676-0.521c-0.552-0.238-0.784-0.425-1.02-0.427
				c-2.226-0.025-4.453-0.021-6.679-0.022c-8.313,0-16.626,0.012-24.939-0.02c-0.705-0.001-1.408-0.272-2.112-0.418
				c0.032-0.187,0.063-0.373,0.096-0.561c0.536,0,1.072-0.008,1.608,0.003c5.302,0.107,10.605,0.263,15.908,0.317
				c5.392,0.056,10.786,0.014,16.179,0.014c1.625,0,3.25,0,4.876,0c0.005-0.294,0.008-0.587,0.013-0.88c-8.551,0-17.104,0-25.655,0
				c-0.019-0.235-0.038-0.469-0.056-0.702c0.636-0.14,1.274-0.402,1.908-0.393c2.334,0.039,4.666,0.214,7,0.253
				c3.104,0.051,6.208-0.003,9.313,0.029c5.87,0.062,11.704,0.337,17.353-2.042c5.774-2.433,11.74-4.413,17.62-6.593
				c3.084-1.145,6.165-2.292,8.924-3.319c-0.221-2.813-0.535-5.475-0.597-8.141c-0.026-1.224-0.334-1.804-1.403-1.221
				c-1.923,1.051-4.535,0.808-5.815,3.093c-0.191,0.34-0.678,0.677-1.057,0.711c-0.82,0.076-1.716,0.127-2.477-0.128
				c-0.843-0.282-0.865-1.082-0.548-1.892C296.864,163.734,297.107,162.868,297.396,161.99z M270.795,202.608
				c2.902-0.999,5.87-1.99,8.818-3.037c5.143-1.822,10.285-3.641,15.403-5.527c4.608-1.698,9.195-3.458,13.756-5.28
				c0.405-0.162,0.784-0.979,0.774-1.482c-0.077-4.162-0.249-8.322-0.401-12.481c-0.003-0.077-0.117-0.153-0.159-0.207
				c-14.254,5.153-28.498,10.305-42.543,15.382c0,5.017,0,9.687,0,14.389c1.08-0.136,1.622-0.659,1.515-1.853
				c-0.089-0.99-0.047-1.995-0.013-2.992c0.102-3.006,0.229-6.013,0.345-9.021c0.216-0.007,0.432-0.013,0.647-0.02
				c0,2.049,0,4.099,0,6.149c0,2.233,0,4.47,0,7.066c0.472-0.42,1.208-0.771,1.208-1.124c0.009-2.747-0.147-5.492-0.188-8.241
				c-0.008-0.521,0.266-1.05,0.409-1.575c0.143,0.039,0.285,0.08,0.428,0.12C270.795,196.095,270.795,199.318,270.795,202.608z
				 M343.086,144.185c-2.088,2.938-5.011,4.485-8.263,5.31c-5.974,1.51-11.996,2.829-18.009,4.185
				c-4.233,0.951-8.505,1.724-12.716,2.757c-7.037,1.724-14.055,3.527-21.048,5.416c-6.776,1.83-13.56,3.658-20.255,5.76
				c-6.547,2.055-13.003,4.413-19.471,6.716c-5.488,1.953-10.938,4.014-16.402,6.036c-3.144,1.162-6.301,2.29-9.41,3.538
				c-2.823,1.134-5.551,2.509-8.387,3.604c-3.871,1.494-7.653,3.361-11.97,3.281c-3.328-0.062-6.774-2.504-8.091-5.622
				c-1.375-3.256-2.665-6.743-5.5-8.938c-4.227-3.271-8.654-6.352-13.281-9.019c-4.526-2.612-9.382-4.668-14.152-6.838
				c-1.187-0.54-2.595-0.548-3.851,0.169c1.857,0.767,3.602,1.46,5.325,2.205c2.915,1.26,5.973,2.285,8.688,3.887
				c5.122,3.024,10.143,6.246,15.003,9.676c2.321,1.637,4.054,4.092,4.792,6.914c1.271,4.855,4.139,8.21,9.075,8.988
				c2.539,0.398,5.381-0.132,7.905-0.866c3.807-1.108,7.467-2.735,11.168-4.197c2.41-0.951,4.751-2.081,7.177-2.985
				c4.085-1.521,8.235-2.868,12.316-4.4c3.838-1.44,7.572-3.165,11.439-4.51c5.865-2.041,11.792-3.904,17.72-5.757
				c4.648-1.452,9.34-2.762,14.008-4.155c3.462-1.034,6.891-2.185,10.377-3.128c4.02-1.085,8.092-1.975,12.131-2.99
				c3.455-0.87,6.868-1.913,10.347-2.676c8.405-1.852,16.855-3.504,25.247-5.402c3.089-0.698,5.772-2.415,8.158-4.504
				C343.978,145.926,344.674,145.048,343.086,144.185z M389.364,92.728c-0.629,0.49-1.054,0.922-1.562,1.197
				c-6.119,3.301-12.298,6.499-18.372,9.886c-4.953,2.762-9.772,5.768-14.677,8.619c-4.007,2.327-8.071,4.556-12.064,6.903
				c-0.542,0.316-1.103,1.041-1.17,1.634c-0.179,1.538-0.071,3.108-0.124,4.665c-0.006,0.185-0.288,0.357-0.664,0.799
				c0-2.187,0-4.044,0-5.901c-0.104-0.003-0.207-0.005-0.314-0.006c-0.175,2.215-0.354,4.431-0.551,6.903
				c0.868-0.389,1.582-0.635,2.224-1.004c6.126-3.55,12.246-7.113,18.362-10.681c3.283-1.916,6.548-3.86,9.834-5.77
				c4.953-2.876,9.922-5.727,14.875-8.603c1.066-0.62,2.707-1.084,3.027-1.993C388.923,97.288,389.01,94.972,389.364,92.728z
				 M297.561,113.258c-0.159-0.007-0.316-0.014-0.475-0.021c-0.174,1.653-0.439,3.303-0.446,4.956
				c-0.001,0.351,0.892,0.84,1.451,1.034c1.867,0.654,3.801,1.121,5.654,1.806c5.543,2.047,11.062,4.162,17.027,6.414
				c0.745-4.721,1.448-9.156,2.129-13.476c-0.843,0.141-1.595,0.504-2.194,0.33c-2.642-0.76-5.241-1.657-7.847-2.537
				c-0.973-0.329-1.903-0.796-2.885-1.104c-0.985-0.31-2.101-0.881-3.002-0.667c-2.386,0.563-4.661,1.595-7.037,2.234
				c-1.235,0.332-1.684,0.919-1.745,2.128c-0.073,1.405-0.316,2.801-0.485,4.201c-0.173-0.02-0.347-0.039-0.52-0.057
				C297.312,116.752,297.436,115.006,297.561,113.258z M272.245,119.062c-0.009-0.192-0.015-0.387-0.021-0.581
				c-0.46,0-0.956-0.114-1.375,0.016c-4.543,1.407-9.075,2.846-13.608,4.285c-3.402,1.079-6.8,2.172-10.2,3.26
				c-2.78,0.89-5.561,1.78-8.34,2.676c-3.294,1.06-6.589,2.119-9.88,3.19c-3.75,1.221-7.497,2.449-11.244,3.681
				c-3.688,1.209-7.375,2.418-11.059,3.641c-4.463,1.478-8.919,2.977-13.385,4.448c-4.616,1.522-9.237,3.026-13.86,4.526
				c-3.904,1.267-7.819,2.503-11.722,3.773c-6.141,2-12.261,4.069-18.422,6.005c-3.709,1.165-7.353,2.315-10.03,5.418
				c-2.128,2.467-3.406,5.896-0.514,9.269c1.272,1.482,4.084,1.831,5.609,0.479c-0.799-0.353-1.504-0.769-2.266-0.977
				c-2.159-0.586-3.018-1.57-3.061-3.766c-0.062-3.188,2.03-5.199,4.455-6.36c3.287-1.573,6.911-2.438,10.383-3.628
				c4.395-1.508,8.776-3.059,13.178-4.545c4.031-1.361,8.093-2.63,12.123-3.996c4.451-1.511,8.869-3.12,13.323-4.621
				c2.968-0.998,5.992-1.831,8.963-2.825c3.986-1.333,7.925-2.812,11.919-4.118c6.35-2.077,12.742-4.028,19.093-6.106
				c6.267-2.049,12.496-4.219,18.76-6.277c4.728-1.554,9.491-2.998,14.229-4.52C267.62,120.659,269.927,119.845,272.245,119.062z
				 M132.292,153.228c0.073,0.164,0.146,0.327,0.219,0.489c1.127-0.35,2.435-0.445,3.349-1.096
				c4.381-3.106,8.559-6.505,12.996-9.526c3.752-2.552,7.76-4.729,11.654-7.072c3.048-1.835,6.007-3.838,9.159-5.47
				c5.791-3.002,11.67-5.836,17.559-8.644c4.496-2.143,9.024-4.224,13.606-6.175c4.262-1.812,8.582-3.501,12.932-5.089
				c4.819-1.76,9.706-3.338,14.55-5.03c0.374-0.13,0.649-0.54,0.971-0.819c-0.461-0.062-0.975-0.288-1.374-0.158
				c-2.154,0.701-4.273,1.505-6.416,2.245c-3.827,1.321-7.71,2.499-11.482,3.96c-4.825,1.87-9.58,3.925-14.333,5.975
				c-4.353,1.876-8.72,3.736-12.98,5.809c-5.793,2.822-11.585,5.675-17.205,8.82c-6.043,3.384-11.953,7.021-17.796,10.743
				c-4.379,2.788-8.574,5.869-12.824,8.857C133.958,151.694,133.15,152.498,132.292,153.228z M349.949,146.638
				c-0.979,0.324-1.822,0.681-2.7,0.85c-0.317,0.062-0.72-0.329-1.086-0.516c0.295-0.254,0.548-0.593,0.885-0.749
				c0.885-0.413,1.809-0.745,2.713-1.109c-0.492-0.744-0.985-1.491-1.481-2.232c-0.062-0.092-0.146-0.167-0.227-0.244
				c-1.319-1.294-2.72-1.899-4.732-1.59c-2.723,0.418-4.194,2.116-5.514,4.18c-0.425,0.666-0.752,1.396-1.128,2.096
				c0.201,0.158,0.398,0.32,0.597,0.479c1.394-1.193,2.726-2.474,4.21-3.538c0.665-0.475,1.799-0.919,2.435-0.663
				c0.998,0.402,2.24,0.914,1.941,2.661c-0.272,1.585-1.219,2.002-2.467,2.594c-2.035,0.967-3.944,2.225-5.824,3.48
				c-0.646,0.432-1.051,1.226-1.799,2.135c0.765,0,0.998,0.061,1.186-0.008c3.854-1.371,7.712-2.736,11.55-4.15
				C350.231,149.676,350.716,148.333,349.949,146.638z M167.371,193.545c-0.042,0.179-0.084,0.356-0.126,0.533
				c0.506,0.122,1.009,0.332,1.519,0.349c4.189,0.136,8.378,0.285,12.569,0.334c4.822,0.055,9.646,0.013,14.469,0.013
				c3.408,0,6.815,0,10.224,0c6.446,0,12.894-0.042,19.34,0.013c6.139,0.053,12.278,0.228,18.418,0.299
				c0.841,0.01,1.687-0.263,2.53-0.405c-0.023-0.191-0.047-0.381-0.071-0.57c-2.381,0-4.764,0.02-7.146-0.004
				c-10.577-0.104-21.153-0.233-31.731-0.323c-4.594-0.039-9.19-0.007-13.785-0.007c-7.816,0-15.632,0.008-23.448-0.01
				C169.212,193.762,168.292,193.621,167.371,193.545z M241.912,196.493c0-0.253,0-0.507,0-0.76c-23.527,0-47.054,0-70.581,0
				c-0.001,0.089-0.002,0.178-0.003,0.269C194.856,196.166,218.384,196.329,241.912,196.493z M343.453,138.824
				c-1.656-2.55-4.389-3.585-7.251-2.894c-6.084,1.474-8.062,7.149-5.005,12.307c0.204,0.347,0.914,0.58,1.349,0.526
				c0.243-0.029,0.593-0.773,0.555-1.162c-0.065-0.622-0.373-1.233-0.643-1.816c-1.082-2.323-0.311-4.397,1.174-6.098
				c1.339-1.531,3.261-2.114,5.358-1.723C340.477,138.244,341.965,138.537,343.453,138.824z M174.701,197.137
				c-0.023,0.091-0.045,0.181-0.068,0.271c0.766,0.119,1.53,0.332,2.298,0.344c3.009,0.038,6.018,0.016,9.026,0.016
				c5.281,0,10.562,0,15.844,0c7.867,0,15.733-0.032,23.6,0.017c3.42,0.02,6.838,0.227,10.259,0.295
				c0.656,0.015,1.317-0.228,1.976-0.352c-0.014-0.196-0.029-0.395-0.044-0.591C216.628,197.137,195.665,197.137,174.701,197.137z
				 M205.023,192.662c0.028,0.165,0.056,0.329,0.083,0.494c10.093,0,20.187-0.026,30.28,0.013c4.35,0.02,8.699,0.209,13.049,0.25
				c0.953,0.01,1.909-0.279,2.863-0.432c-1.005-0.21-1.944-0.185-2.882-0.214c-3.197-0.101-6.395-0.292-9.592-0.314
				c-7.144-0.047-14.287,0.02-21.429-0.029c-3.203-0.022-6.405-0.253-9.607-0.288C206.87,192.132,205.946,192.478,205.023,192.662z
				 M233.497,199.039c-18.492-0.507-36.994-0.776-55.5-0.551c-0.002,0.185-0.005,0.366-0.007,0.551
				C196.491,199.039,214.994,199.039,233.497,199.039z M272.635,117.803c-0.033,0.145-0.065,0.288-0.1,0.435
				c0.442,0.111,0.942,0.414,1.318,0.305c2.275-0.661,4.524-1.412,6.777-2.149c3.845-1.256,7.679-2.541,11.526-3.784
				c4.007-1.292,8.024-2.546,12.038-3.818c-0.058-0.206-0.116-0.412-0.175-0.617c-5.361,0.596-10.239,3.074-15.384,4.495
				C283.241,114.157,277.963,116.072,272.635,117.803z M147.026,157.847c0.004-0.211,0.008-0.421,0.012-0.632
				c-2.559-0.658-5.124-1.295-7.675-1.98c-2.825-0.762-5.665-1.427-8.422,0.101c-1.74,0.962-3.4,2.084-5.035,3.222
				c-0.241,0.169-0.139,0.828-0.197,1.261c0.428,0.022,0.962,0.217,1.263,0.034c0.738-0.452,1.366-1.081,2.042-1.636
				c2.075-1.701,4.607-2.465,7.126-2.251c2.658,0.226,5.237,1.285,7.878,1.848C144.98,158.019,146.021,157.847,147.026,157.847z
				 M255.29,191.464c-12.138-1.034-44.106-0.915-45.434-0.003C225.109,191.292,240.2,191.95,255.29,191.464z M229.916,200.09
				c-16.553,0-32.646,0-48.764,0C182.943,200.832,228.224,201.032,229.916,200.09z M259.378,190.075
				c0.001-0.155,0.003-0.312,0.005-0.467c-7.624-0.054-15.248-0.125-22.872-0.15c-7.628-0.028-15.256-0.007-22.885-0.007
				c0.002,0.208,0.003,0.415,0.005,0.624C228.88,190.075,244.129,190.075,259.378,190.075z M217.032,187.844
				c0.019,0.298,0.039,0.598,0.058,0.897c7.558,0,15.116-0.006,22.674,0.002c3.865,0.003,7.73-0.008,11.594,0.054
				c3.437,0.055,6.872,0.224,10.309,0.278c0.541,0.008,1.085-0.327,1.628-0.506c-0.037-0.148-0.074-0.298-0.112-0.448
				c-0.536,0-1.071,0-1.607,0c-6.717,0-13.434,0.001-20.151-0.002c-1.896,0-3.793,0.022-5.688-0.022
				c-3.241-0.078-6.482-0.221-9.723-0.299c-2-0.049-4.001-0.04-6.001-0.035C219.02,187.763,218.025,187.814,217.032,187.844z
				 M147.779,162.664c-3.365-0.303-7.49,3.009-7.46,5.412c1.377,0.202,2.724,0.4,4.426,0.649
				C145.683,166.852,146.695,164.83,147.779,162.664z M357.458,93.794c-0.194-0.148-0.389-0.295-0.583-0.444
				c0.425-0.785,0.846-1.568,1.254-2.321c-1.222,0-2.521,0-3.834,0c0.101,1.388,0.178,2.474,0.259,3.56
				c0.146,0.006,0.295,0.011,0.444,0.016c0.059-0.762,0.12-1.523,0.179-2.285c0.058,0,0.116,0,0.175,0
				c0.055,0.734,0.11,1.467,0.148,1.945c1.829,0.486,3.488,0.922,5.145,1.37c0.892,0.241,1.469,0.08,1.89-0.887
				c0.506-1.157,0.165-2.049-0.774-2.504c-0.661-0.319-1.673-0.321-2.369-0.055C358.652,92.472,358.097,93.239,357.458,93.794z
				 M186.936,188.563c0.062-0.205,0.125-0.407,0.188-0.609c-0.433-0.167-0.861-0.456-1.301-0.476
				c-1.388-0.062-2.782-0.024-4.173-0.024c-6.704,0-13.408,0-20.112,0c-0.443,0-0.886-0.006-1.329-0.019
				c-2.3-0.059-4.599-0.122-6.897-0.169c-0.025-0.002-0.053,0.182-0.131,0.467c0.919,0.133,1.809,0.366,2.7,0.369
				c7.701,0.029,15.403-0.02,23.104,0.039C181.635,188.161,184.285,188.416,186.936,188.563z M157.186,189.107
				c1.267,0.727,29.094,1.076,30.868,0C177.721,189.107,167.388,189.107,157.186,189.107z M315.719,157.763
				c-0.039-0.147-0.074-0.295-0.11-0.444c-1.108,0.277-2.217,0.551-3.325,0.831c-3.565,0.901-7.141,1.754-10.688,2.728
				c-1.659,0.457-3.426,0.968-3.738,3.096c-0.066,0.456,0.081,0.943,0.131,1.418c0.422-0.238,0.882-0.429,1.261-0.723
				c1.071-0.831,2.007-1.904,3.187-2.512c1.793-0.922,3.715-1.617,5.637-2.253c2.01-0.666,4.084-1.146,6.13-1.71
				C314.711,158.056,315.213,157.907,315.719,157.763z M189.651,191.141c0.017-0.12,0.034-0.238,0.051-0.358
				c-9.747,0-19.494,0-29.229,0c0.468,0.101,1.001,0.309,1.536,0.314c2.438,0.036,4.878,0.013,7.317,0.018
				c2.051,0.004,4.102,0.023,6.152,0.024C180.204,191.143,184.927,191.141,189.651,191.141z M337.748,134.73
				c0.01-0.159,0.02-0.318,0.029-0.477c-0.981-0.113-2-0.444-2.939-0.299c-2.285,0.36-4.341,1.452-5.562,3.41
				c-0.976,1.561-1.602,3.407-2.029,5.211c-0.165,0.708-0.256,2.233,1.644,2.186c-0.609-2.713,0.425-5.038,2.017-7.075
				C332.594,135.524,335.083,134.854,337.748,134.73z M324.228,130.079c-0.354-0.247-0.535-0.474-0.703-0.467
				c-0.309,0.013-0.616,0.147-0.914,0.261c-4.042,1.546-5.744,4.352-6.398,8.209c-0.272,1.586,0.486,2.32,2.109,2.434
				C316.903,139.23,320.464,130.642,324.228,130.079z M163.88,192.252c-0.015,0.185-0.031,0.369-0.046,0.554
				c9.331-0.288,18.657,0.55,27.989-0.038c0.001-0.174,0.002-0.344,0.004-0.516C182.512,192.252,173.196,192.252,163.88,192.252z
				 M333.664,133.031c-0.713-0.29-0.943-0.481-1.135-0.447c-3.964,0.689-7.655,4.398-8.038,8.366
				c-0.107,1.115,0.347,1.627,1.43,1.56C326.766,138.114,328.99,134.824,333.664,133.031z M327.42,131.055
				c-0.042-0.177-0.087-0.352-0.129-0.528c-1.034,0.176-2.275,0.044-3.066,0.579c-3.66,2.472-5.446,5.873-4.27,10.559
				C321.252,137.26,322.458,132.792,327.42,131.055z M190.445,201.464c0.008,0.175,0.016,0.35,0.023,0.523
				c11.628,0,23.256,0,34.884,0c0.001-0.174,0.002-0.349,0.002-0.523C213.719,201.464,202.082,201.464,190.445,201.464z
				 M260.154,192.336c0,4.855,0,9.556,0,14.258c0.304,0.023,0.608,0.05,0.912,0.072c0.457-3.881,0.126-7.851,0.538-11.738
				c0.107-1.013,0.017-2.046,0.017-3.253C260.986,191.96,260.603,192.134,260.154,192.336z M240.527,109.149
				c0.223-0.182,0.446-0.365,0.669-0.548c-0.292-0.435-0.49-1.065-0.897-1.267c-0.948-0.467-2.021-0.673-3.001-1.085
				c-2.447-1.027-4.87-2.109-7.352-3.19c1.188-1.247,2.119-2.222,3.049-3.197c-0.769-0.003-1.43,0.166-2.032,0.457
				c-1.221,0.591-1.698,1.683-1.348,2.913c0.172,0.603,0.818,1.245,1.412,1.52c1.555,0.724,2.966,1.623,4.85,1.838
				C237.504,106.775,238.983,108.246,240.527,109.149z M265.611,190.411c-0.155-0.105-0.311-0.211-0.466-0.316
				c-0.284,0.656-0.733,1.292-0.809,1.973c-0.097,0.851,0.172,1.737,0.178,2.609c0.026,3.445,0.011,6.893,0.011,10.34
				c0.119,0.067,0.237,0.136,0.356,0.204c0.243-0.506,0.683-1.007,0.697-1.521c0.071-2.71,0.033-5.423,0.033-8.134
				C265.611,193.846,265.611,192.129,265.611,190.411z M140.166,169.563c-0.035,0.167-0.07,0.332-0.106,0.499
				c0.664,0.365,1.29,0.854,1.999,1.075c2.162,0.679,4.66,2.256,4.464,5.73c-0.062,1.102-0.06,2.214,0.028,3.312
				c0.026,0.319,0.453,0.606,0.696,0.908c0.095-0.305,0.265-0.606,0.27-0.911c0.023-1.381,0.016-2.764-0.009-4.145
				c-0.062-3.502-2.644-6.426-6.089-6.839C141.022,169.147,140.584,169.432,140.166,169.563z M257.793,207.594
				c0.354-0.109,0.75-0.23,1.304-0.402c0-4.921,0-9.782,0-14.774c-0.468,0.233-0.884,0.442-1.304,0.651
				C257.793,197.905,257.793,202.679,257.793,207.594z M329.826,132.182c-0.11-0.154-0.22-0.309-0.334-0.464
				c-1.04,0.366-2.129,0.632-3.111,1.118c-2.379,1.18-3.514,3.435-4.486,5.715c-0.632,1.484,0.013,2.497,1.553,2.867
				C323.398,136.901,326.069,134.18,329.826,132.182z M262.285,205.713c0.715,0.023,1.495,0.204,1.088-1.264
				c-0.286-1.027-0.11-2.198-0.067-3.303c0.128-3.31,0.293-6.619,0.446-9.99c-1.435,0.266-1.46,0.266-1.462,1.455
				C262.278,196.916,262.285,201.22,262.285,205.713z M270.025,110.706c-0.088-0.195-0.177-0.392-0.265-0.588
				c-0.999,0.263-2.199,0.261-2.961,0.836c-2.468,1.866-3.36,4.599-3.564,7.594c0.51,0.128,1.022,0.256,1.635,0.409
				C265.372,115.406,266.656,112.41,270.025,110.706z M252.629,194.444c-0.451,0.564-1.043,0.961-1.058,1.38
				c-0.143,4.148-0.194,8.301-0.259,12.453c-0.007,0.468,0.059,0.937,0.109,1.673c0.498-0.305,1.027-0.462,1.045-0.665
				c0.116-1.327,0.15-2.664,0.157-4C252.64,201.813,252.629,198.341,252.629,194.444z M315.399,138.051
				c0.431-3.91,2.077-7.053,5.74-9.058c-1.245,0.162-2.324,0.553-3.349,1.048c-2.084,1.005-2.713,3.193-3.802,4.965
				C313.104,136.441,314.018,138.159,315.399,138.051z M249.207,210.622c0.16,0.086,0.322,0.172,0.482,0.258
				c0.206-0.489,0.575-0.973,0.593-1.468c0.156-4.182,0.233-8.363,0.368-12.545c0.031-0.969-0.265-1.338-1.443-0.855
				C249.207,200.842,249.207,205.732,249.207,210.622z M338.364,104.218c1.55-0.238,3.41-0.028,4.531-0.839
				c1.083-0.783,1.4-2.621,2.059-4.003c-1.17,0.064-2.312,0.127-3.475,0.191C340.49,101.045,339.443,102.608,338.364,104.218z
				 M253.55,208.982c0.102,0.079,0.203,0.157,0.303,0.234c0.26-0.438,0.724-0.868,0.746-1.318c0.169-3.402,0.259-6.809,0.359-10.214
				c0.026-0.872,0.052-1.747-0.023-2.612c-0.028-0.321-0.35-0.616-0.538-0.921c-0.253,0.292-0.564,0.554-0.736,0.89
				c-0.113,0.219-0.023,0.541-0.026,0.818c-0.027,2.491-0.064,4.982-0.082,7.475C253.54,205.218,253.55,207.1,253.55,208.982z
				 M260.139,107.814c-0.096,0.006-0.592-0.072-1.003,0.079c-3.315,1.22-4.45,3.832-4.399,7.231c0.5,0.189,1.074,0.408,1.647,0.627
				c0.06-0.091,0.119-0.179,0.179-0.27c-0.231-0.269-0.463-0.538-0.688-0.797C257.296,112.396,258.71,110.118,260.139,107.814z
				 M247.314,211.481c0.274-0.184,0.815-0.356,0.855-0.609c0.122-0.76,0.042-1.555,0.053-2.336c0.02-1.512,0.064-3.023,0.072-4.537
				c0.012-2.501,0.003-5.002,0.003-7.503c-0.221-0.04-0.442-0.079-0.664-0.118c-0.114,0.452-0.305,0.901-0.326,1.358
				c-0.045,0.966,0.005,1.938,0.005,2.906C247.315,204.159,247.314,207.675,247.314,211.481z M255.889,207.922
				c0.101,0.105,0.2,0.211,0.3,0.316c0.247-0.408,0.683-0.811,0.701-1.229c0.039-0.872-0.234-1.754-0.219-2.629
				c0.062-3.41,0.198-6.818,0.26-10.228c0.005-0.262-0.354-0.53-0.544-0.796c-0.166,0.055-0.333,0.11-0.499,0.167
				C255.889,198.323,255.889,203.123,255.889,207.922z M297.59,132.503c0.202-0.035,0.405-0.071,0.609-0.108
				c0.11-3.951,2.152-6.789,5.543-9.077c-2.855,0.047-5.28,1.656-6.064,4.109c-0.289,0.901-1.56,2.023-0.513,3.138
				C297.307,131.21,297.448,131.858,297.59,132.503z M105.419,182.2c0.331-0.146,0.75-0.243,0.75-0.345
				c0.032-4.53,0.028-9.062,0.028-13.621c-0.099,0-0.466,0-0.779,0C105.419,172.892,105.419,177.484,105.419,182.2z
				 M312.718,137.136c0.457-4.05,2.214-7.194,6.058-9.064c-0.645-0.084-1.329-0.152-1.938,0.027
				c-2.106,0.621-5.468,4.526-5.124,7.439C311.778,136.101,311.009,137.498,312.718,137.136z M113.046,185.751
				c0.177-0.018,0.355-0.037,0.532-0.054c0-1.866-0.042-3.735,0.011-5.601c0.065-2.331,0.273-4.658,0.278-6.988
				c0.001-0.631-0.506-1.263-0.78-1.894c-0.169,0.062-0.338,0.123-0.506,0.187c0,1.577,0,3.152,0,4.728
				c0,1.66-0.093,3.326,0.027,4.978C112.719,182.65,112.059,184.325,113.046,185.751z M246.078,197.23
				c-0.118-0.071-0.236-0.143-0.354-0.214c-0.243,0.651-0.684,1.3-0.697,1.956c-0.081,4.086-0.078,8.173-0.056,12.261
				c0.001,0.321,0.363,0.637,0.558,0.954c0.183-0.072,0.366-0.143,0.549-0.215C246.078,207.058,246.078,202.144,246.078,197.23z
				 M310.057,136.483c0.612-4.291,2.362-7.49,6.142-9.369c-0.956,0.02-2.013-0.123-2.57,0.339c-2.443,2.022-4.651,4.196-4.732,7.792
				C308.867,136.406,309.496,135.965,310.057,136.483z M258.567,115.985c0.401-0.504,0.8-0.875,1.038-1.329
				c0.492-0.936,0.794-1.983,1.367-2.86c0.72-1.101,1.632-2.076,2.461-3.105c-0.067-0.133-0.132-0.267-0.199-0.399
				c-1.006,0.518-2.344,0.79-2.944,1.605c-1.114,1.514-1.895,3.305-2.622,5.06c-0.386,0.932,0.182,1.683,1.217,1.914
				c0.108,0.025,0.251-0.107,0.501-0.226C259.026,116.354,258.751,116.133,258.567,115.985z M244.159,197.982
				c-0.248-0.05-0.495-0.099-0.743-0.147c-0.765,4.582,0.005,9.292-0.716,13.88c-0.06,0.384,0.094,0.801,0.148,1.201
				c0.191,0.04,0.383,0.081,0.575,0.119c0.188-0.536,0.532-1.069,0.54-1.609c0.048-3.713,0.015-7.429,0.033-11.144
				C243.999,199.515,244.102,198.747,244.159,197.982z M190.443,204.267c0.001,0.084,0.002,0.169,0.004,0.253
				c9.392,0,18.784,0,28.176,0c0.001-0.084,0.002-0.169,0.004-0.253C209.232,204.267,199.837,204.267,190.443,204.267z
				 M111.177,170.369c-0.087,0.084-0.173,0.17-0.26,0.255c0,0.651,0.016,1.303-0.003,1.954c-0.105,3.567-0.239,7.136-0.307,10.705
				c-0.01,0.512,0.283,1.03,0.437,1.548c0.266-0.044,0.532-0.086,0.798-0.129c0-4.446,0.014-8.894-0.028-13.341
				C111.81,171.03,111.398,170.7,111.177,170.369z M304.942,134.571c0.506-4.222,2.671-6.888,5.964-8.91
				c-0.379-0.193-0.58-0.391-0.745-0.365c-2.759,0.437-6.722,5.297-6.418,7.959C303.788,133.662,304.404,134.002,304.942,134.571z
				 M254.513,105.932c-1.614,0.071-3.004,1.037-3.869,2.571c-0.732,1.302-1.129,2.791-1.758,4.415c0.671,0.158,1.254,0.3,1.838,0.44
				c-0.126-0.141-0.253-0.28-0.38-0.42C251.74,110.594,253.135,108.249,254.513,105.932z M295.458,131.544
				c0.693-4.368,2.069-7.663,6.172-9.226c-0.966-0.025-1.941-0.087-2.7,0.289c-2.862,1.416-4.506,4.583-4.175,7.833
				C294.79,130.779,295.153,131.082,295.458,131.544z M241.299,213.865c0.286-0.622,0.588-0.982,0.598-1.349
				c0.105-4.362,0.172-8.728,0.223-13.092c0.002-0.204-0.25-0.413-0.384-0.62c-0.242,0.247-0.668,0.48-0.686,0.743
				c-0.037,0.519,0.235,1.052,0.237,1.579C241.31,205.243,241.299,209.356,241.299,213.865z M314.021,126.16
				c-3.28-0.646-6.548,2.681-7.728,7.637c0.46,0.158,0.931,0.319,1.339,0.46C308.417,130.424,310.546,127.915,314.021,126.16z
				 M294.699,118.922c-3.195,0.059-4.467,2.207-5.774,4.13c-0.695,1.019-0.971,2.338-1.34,3.552
				c-0.071,0.235,0.298,0.606,0.463,0.914c0.214-0.252,0.467-0.484,0.641-0.765c1.12-1.812,2.141-3.696,3.366-5.436
				C292.657,120.462,293.629,119.866,294.699,118.922z M108.255,168.882c-0.25-0.01-0.501-0.02-0.752-0.029
				c-0.627,4.691,0.204,9.441-0.054,14.227c0.482-0.446,0.778-0.979,0.785-1.514c0.042-3.371,0.021-6.742,0.021-10.112
				C108.255,170.595,108.255,169.738,108.255,168.882z M273.25,111.606c-3.312-0.876-6.316,2.49-7.209,7.276
				c0.772-0.42,1.699-0.616,1.819-1.039C268.659,115.034,270.249,112.946,273.25,111.606z M298.874,121.317
				c-0.033-0.137-0.066-0.271-0.101-0.405c-0.551,0.079-1.271-0.034-1.62,0.273c-1.391,1.224-2.69,2.558-3.964,3.906
				c-0.305,0.322-0.662,1.022-0.52,1.268c0.552,0.932,0.477,1.587-0.288,2.368c-0.222,0.227,0.088,0.974,0.154,1.48
				c0.286-0.332,0.578-0.661,0.857-1.001c0.064-0.078,0.123-0.185,0.136-0.285C294.008,125.482,295.878,123.01,298.874,121.317z
				 M266.493,109.826c-2.849-0.322-6.323,3.423-5.841,6.11c0.059,0.334,0.441,0.717,0.768,0.854c0.179,0.076,0.765-0.27,0.809-0.495
				C262.757,113.573,263.993,111.334,266.493,109.826z M328.056,127.084c-1.465-0.491-2.853-0.955-4.428-1.481
				c0,1.079,0,1.927,0,2.875c1.526,0.479,3.111,0.979,4.762,1.497C328.26,128.845,328.16,127.998,328.056,127.084z M244.908,101.776
				c0.034-0.161,0.067-0.321,0.101-0.481c-0.952-0.223-1.971-0.781-2.843-0.605c-2.539,0.51-5.017,1.317-7.522,1.995
				c-0.19,0.051-0.411,0.028-0.612,0c-0.244-0.034-0.482-0.11-0.723-0.168c0.047,0.329,0.024,0.908,0.152,0.943
				c0.51,0.142,1.145,0.303,1.596,0.119C238.221,102.279,241.508,101.738,244.908,101.776z M100.549,165.577
				c-0.203,0.011-0.405,0.023-0.609,0.033c0,4.356-0.015,8.712,0.027,13.066c0.004,0.389,0.382,0.774,0.587,1.16
				c0.216-0.055,0.434-0.109,0.651-0.165c0-2.356-0.173-4.729,0.053-7.062C101.455,170.568,101.244,166.204,100.549,165.577z
				 M302.249,133.537c1.136-3.877,2.819-6.937,6.605-8.875c-2.554-0.084-5.248,1.725-6.229,4.136
				C302.077,130.145,300.762,131.564,302.249,133.537z M288.526,116.847c-3.639-0.58-8.406,3.983-7.912,7.099
				c0.054,0.344,0.496,0.625,1.037,1.266C282.656,121.207,284.243,118.076,288.526,116.847z M146.438,170.382
				c2.427-3.079,3.967-7.322,3.357-9.102c-0.271,0.099-0.736,0.127-0.817,0.317c-1.071,2.525-1.283,5.441-3.423,7.483
				c-0.027,0.027-0.004,0.106-0.004,0.254C145.786,169.61,146.062,169.938,146.438,170.382z M237.025,215.005
				c0.199,0.04,0.396,0.081,0.595,0.121c0.126-0.433,0.343-0.862,0.365-1.3c0.136-2.738,0.249-5.479,0.329-8.22
				c0.044-1.567,0.039-3.136-0.01-4.7c-0.008-0.266-0.349-0.521-0.536-0.783c-0.144,0.247-0.362,0.479-0.413,0.741
				c-0.072,0.373-0.01,0.77-0.023,1.155c-0.1,2.909-0.22,5.818-0.301,8.728C236.993,212.167,237.025,213.587,237.025,215.005z
				 M225.025,204.796c-0.236,0.017-0.471,0.032-0.706,0.049c0,1.895,0.035,3.791-0.008,5.686c-0.065,2.851-0.2,5.698-0.247,8.549
				c-0.003,0.212,0.458,0.435,0.961,0.88c0-2.986,0-5.481,0-7.977C225.025,209.587,225.025,207.191,225.025,204.796z
				 M252.563,104.893c-0.375-0.07-0.764-0.24-1.123-0.193c-2.618,0.347-4.872,4.335-4.683,6.216c0.076,0.748-0.12,1.568,0.903,1.315
				C248.542,109.233,249.48,106.471,252.563,104.893z M291.683,118.072c-2.297,0.385-3.564,2.032-4.793,3.705
				c-1.239,1.686-1.724,3.595-1.202,5.806c0.781-1.621,1.194-3.449,2.12-4.966C288.787,121.012,290.255,119.708,291.683,118.072z
				 M234.11,201.523c-0.146-0.008-0.291-0.018-0.436-0.025c0,4.932,0,9.861,0,14.851c0.092-0.052,0.413-0.149,0.414-0.247
				C234.113,211.243,234.11,206.384,234.11,201.523z M218.982,206.935c-0.16,4.991-0.934,9.967-0.414,15.416
				C219.449,220.839,219.724,210.225,218.982,206.935z M98.713,178.871c0.179-0.042,0.359-0.081,0.538-0.12
				c0-1.539-0.002-3.079,0-4.618c0.005-2.817,0.03-5.636-0.006-8.454c-0.004-0.293-0.365-0.583-0.664-1.03
				c0,2.217,0.038,4.03-0.01,5.841c-0.063,2.405-0.216,4.811-0.275,7.215C98.288,178.09,98.567,178.482,98.713,178.871z
				 M97.413,164.265c-0.096,0.159-0.442,0.467-0.452,0.784c-0.125,4.292-0.205,8.587-0.284,12.88c0,0.054,0.166,0.112,0.736,0.472
				C97.413,173.516,97.413,168.924,97.413,164.265z M102.601,166.506c-0.157,0.062-0.59,0.155-0.59,0.251
				c-0.033,4.546-0.029,9.094-0.029,13.643c0.206,0,0.413,0.002,0.619,0.002C102.601,175.821,102.601,171.241,102.601,166.506z
				 M235.422,215.687c0.215-0.023,0.431-0.046,0.646-0.068c0-4.916,0-9.833,0-14.75c-0.215,0.002-0.431,0.002-0.646,0.002
				C235.422,205.808,235.422,210.747,235.422,215.687z M239.247,199.545c0,4.927,0,9.854,0,14.836
				C240.121,213.538,240.428,200.594,239.247,199.545z M257.256,106.954c-0.332,0-0.689-0.081-0.993,0.012
				c-2.503,0.773-3.245,3.083-4.099,5.129c-0.192,0.462-0.513,2.372,1.238,2.425C253.835,111.663,254.554,109.003,257.256,106.954z
				 M291.161,128.568c0.13-3.776,2.271-6.241,5-8.418c-0.612,0.084-1.283,0.128-1.748,0.459c-2.229,1.585-4.038,3.487-4.527,6.352
				C289.718,127.937,289.84,128.529,291.161,128.568z M228.79,203.39c-1.143,0.519-0.503,1.314-0.526,2.061
				c-0.118,4.001-0.376,7.999-0.541,11.999c-0.013,0.331,0.312,0.671,0.48,1.008c0.195-0.06,0.391-0.119,0.586-0.181
				C228.79,213.374,228.79,208.471,228.79,203.39z M220.467,221.162c0.184,0.013,0.368,0.025,0.553,0.038c0-5.008,0-10.016,0-15.104
				c-0.169,0.14-0.528,0.298-0.529,0.457C220.461,211.423,220.467,216.293,220.467,221.162z M215.576,208.16
				c-0.131-0.005-0.262-0.01-0.392-0.013c-0.046,0.305-0.12,0.609-0.134,0.917c-0.118,2.618-0.257,5.235-0.327,7.854
				c-0.049,1.893-0.02,3.786,0.037,5.677c0.006,0.181,0.457,0.349,0.816,0.604C215.576,218.008,215.576,213.084,215.576,208.16z
				 M85.153,172.391c0.146,0.042,0.292,0.081,0.438,0.122c0.125-0.734,0.35-1.466,0.359-2.201c0.05-3.651,0.044-7.302,0.05-10.954
				c0-0.235-0.017-0.496-0.125-0.69c-0.041-0.075-0.491-0.052-0.536,0.037c-0.122,0.245-0.173,0.548-0.176,0.828
				c-0.015,1.983-0.01,3.968-0.01,5.951C85.152,167.787,85.153,170.091,85.153,172.391z M284.209,126.052
				c0.49-3.37,2.161-5.898,4.552-8.034c-2.822,0.398-3.815,2.745-5.093,4.739c-0.47,0.732-0.671,1.638-1.008,2.502
				C283.147,125.509,283.528,125.703,284.209,126.052z M90.639,161.255c-0.26,4.598-0.903,9.193-0.605,13.797
				c0.303,0.005,0.605,0.008,0.908,0.013C90.97,170.463,90.953,165.86,90.639,161.255z M192.131,187.552
				c2.047,1.283,11.828,1.184,13.04,0C200.9,187.552,196.623,187.552,192.131,187.552z M226.7,204.174
				c-0.126-0.002-0.252-0.004-0.378-0.005c0,4.938,0,9.873,0,14.812c0.126,0,0.252,0.003,0.378,0.005
				C226.7,214.047,226.7,209.11,226.7,204.174z M86.898,173.307c0.201-0.008,0.402-0.015,0.603-0.021
				c0.042-0.463,0.11-0.925,0.124-1.389c0.106-3.477,0.226-6.953,0.278-10.429c0.011-0.646-0.262-1.297-0.404-1.945
				c-0.2,0.046-0.401,0.091-0.601,0.135C86.898,164.207,86.898,168.758,86.898,173.307z M222.341,220.281
				c0.14,0.034,0.279,0.068,0.418,0.103c0.324-2.359,0.266-4.757,0.269-7.147c0.002-2.587,0-5.17,0-7.753
				c-0.229,0.001-0.458,0.005-0.688,0.008C222.341,210.421,222.341,215.351,222.341,220.281z M103.788,181.289
				c0.146,0.004,0.292,0.01,0.438,0.014c0.123-2.818,0.268-5.637,0.361-8.455c0.049-1.496,0.039-2.994-0.02-4.488
				c-0.012-0.308-0.36-0.602-0.78-1.254C103.788,172.229,103.788,176.76,103.788,181.289z M230.02,217.629
				c0.134,0.022,0.269,0.045,0.403,0.067c0.555-4.939,0.119-9.902,0.27-14.85c-0.225-0.005-0.449-0.012-0.673-0.019
				C230.02,207.761,230.02,212.695,230.02,217.629z M109.253,184.025c0.143,0.006,0.285,0.013,0.426,0.02
				c0.08-0.558,0.215-1.115,0.23-1.676c0.107-3.926,0.201-7.854,0.251-11.779c0.003-0.263-0.391-0.53-0.6-0.794
				c-0.103,0.062-0.205,0.128-0.308,0.19c0,2.399,0,4.794,0,7.193C109.253,179.461,109.253,181.743,109.253,184.025z
				 M306.105,123.865c-0.44-0.169-0.566-0.265-0.632-0.233c-3.079,1.472-5.183,3.747-5.826,7.19
				c-0.222,1.185-0.201,1.188,0.803,1.265C301.059,128.569,302.947,125.856,306.105,123.865z M231.673,216.831
				c0.18,0.032,0.361,0.063,0.542,0.094c0.274-2.485,0.088-5.006,0.122-7.507c0.033-2.479,0.007-4.959,0.007-7.438
				c-0.224,0.005-0.447,0.01-0.67,0.015C231.673,206.941,231.673,211.886,231.673,216.831z M213.226,208.677
				c0,5.104,0,10.033,0,14.965c0.143,0.002,0.287,0.002,0.431,0.002c0.089-4.829,0.184-9.659,0.242-14.489
				C213.9,209.019,213.519,208.879,213.226,208.677z M217.329,207.493c-0.099-0.004-0.197-0.005-0.296-0.009
				c0,5.005,0,10.008,0,15.013c0.099,0.005,0.197,0.008,0.296,0.013C217.329,217.504,217.329,212.499,217.329,207.493z
				 M92.286,162.035c-0.15,0.012-0.3,0.023-0.45,0.033c0,4.561,0,9.121,0,13.682c0.15,0,0.3,0,0.45,0.002
				C92.286,171.179,92.286,166.609,92.286,162.035z M211.541,224.302c0.153-0.002,0.307-0.003,0.46-0.003c0-4.879,0-9.757,0-14.636
				c-0.154,0.004-0.307,0.005-0.46,0.007C211.541,214.55,211.541,219.425,211.541,224.302z M207.428,225.635
				c0.21,0.007,0.42,0.012,0.63,0.017c0-1.162-0.024-2.326,0.005-3.488c0.091-3.598,0.212-7.195,0.283-10.794
				c0.004-0.197-0.338-0.401-0.52-0.603c-0.134,0.245-0.379,0.489-0.383,0.737c-0.033,1.732-0.015,3.467-0.015,5.197
				C207.428,219.68,207.428,222.657,207.428,225.635z M209.667,224.967c0.124,0,0.247,0,0.371,0.002c0-4.912,0-9.826,0-14.738
				c-0.124-0.002-0.247-0.002-0.371-0.002C209.667,215.142,209.667,220.052,209.667,224.967z M333.914,148.38
				c0.116,0.097,0.236,0.191,0.354,0.288c0.291-0.408,0.687-0.774,0.855-1.229c0.969-2.607,2.006-5.15,4.657-6.553
				c0.879-0.465,1.776-0.89,2.665-1.333C338.101,140.057,335.673,142.647,333.914,148.38z M95.656,163.725
				c-0.153-0.001-0.306-0.001-0.458-0.001c0,4.443,0,8.89,0,13.335c0.152,0,0.305,0.003,0.458,0.003
				C95.656,172.617,95.656,168.172,95.656,163.725z M93.5,176.265c0.151,0.013,0.301,0.025,0.453,0.038
				c-0.055-4.526,0.487-9.058,0.183-13.581c-0.212,0.002-0.424,0.003-0.636,0.003C93.5,167.239,93.5,171.753,93.5,176.265z
				 M88.623,174.032c0.133,0.001,0.266,0.003,0.399,0.005c0-4.483,0-8.966,0-13.447c-0.133-0.003-0.266-0.003-0.399-0.003
				C88.623,165.066,88.623,169.549,88.623,174.032z M84.147,158.264c-0.186-0.007-0.372-0.012-0.557-0.019c0,4.396,0,8.791,0,13.229
				c0.146-0.029,0.531-0.071,0.531-0.117C84.149,166.993,84.147,162.629,84.147,158.264z M243.748,107.578
				c1.488-1.579,2.82-2.994,3.967-4.211c-2.745-0.059-4.068,1.1-5.184,3.811C242.987,107.328,243.444,107.479,243.748,107.578z
				 M269.393,116.9c1.217,0.929,1.761-0.225,2.143-0.886c0.892-1.545,1.876-2.865,3.734-3.265c0.198-0.044,0.368-0.225,0.626-0.392
				C273.844,111.606,271.575,113.243,269.393,116.9z M203.708,225.472c0.146,0.003,0.292,0.003,0.437,0.007
				c0-4.447,0-8.892,0-13.337c-0.145-0.002-0.291-0.003-0.437-0.005C203.708,216.583,203.708,221.029,203.708,225.472z
				 M205.516,223.304c0.129-0.002,0.258-0.004,0.388-0.005c0-3.931,0-7.862,0-11.794c-0.129,0.003-0.258,0.006-0.388,0.01
				C205.516,215.445,205.516,219.376,205.516,223.304z M195.942,206.756c-0.001,0.124-0.002,0.247-0.003,0.374
				c4.678,0,9.354,0,14.031,0c0.001-0.127,0.002-0.25,0.004-0.374C205.296,206.756,200.619,206.756,195.942,206.756z
				 M245.078,111.317c1.153-2.373,2.199-4.525,3.324-6.842c-2.678,1.028-3.199,3.387-3.691,5.727
				C244.641,110.54,244.952,110.958,245.078,111.317z M193.153,205.402c-0.002,0.104-0.005,0.206-0.008,0.308
				c4.831,0,9.66,0,14.491,0c0.005-0.102,0.009-0.204,0.014-0.308C202.818,205.402,197.986,205.402,193.153,205.402z
				 M80.362,169.674c0.155-0.032,0.311-0.066,0.466-0.099c0-3.72,0-7.439,0-11.157c-0.155,0-0.311-0.003-0.466-0.003
				C80.362,162.169,80.362,165.922,80.362,169.674z M327.207,113.902c-0.194,1.149-0.369,2.187-0.625,3.693
				c1.679-0.983,2.891-1.693,4.317-2.528C329.628,114.666,328.549,114.325,327.207,113.902z M212.826,203.194
				c0.001-0.139,0.003-0.278,0.005-0.418c-3.828,0-7.655,0-11.482,0c0.001,0.14,0.001,0.279,0.002,0.418
				C205.176,203.194,209,203.194,212.826,203.194z M289.121,115.868c1.312,0.489,2.43,0.94,3.575,1.3
				c0.189,0.061,0.707-0.248,0.723-0.42c0.08-0.799,0.036-1.612,0.036-2.452C292.033,114.811,290.703,115.295,289.121,115.868z
				 M200.309,203.213c0.01-0.161,0.02-0.323,0.03-0.485c-4.274,0.232-8.585-0.855-12.824,0.485
				C191.78,203.213,196.044,203.213,200.309,203.213z M338.351,92.961c-0.101-0.141-0.201-0.281-0.305-0.421
				c-3.546,1.955-7.093,3.911-10.642,5.866c0.081,0.146,0.158,0.292,0.239,0.438C331.213,96.882,334.782,94.921,338.351,92.961z
				 M79.326,156.204c-0.157,0.015-0.314,0.029-0.472,0.046c0,4.28,0,8.562,0,12.842c0.157,0,0.314,0.002,0.472,0.002
				C79.326,164.797,79.326,160.499,79.326,156.204z M277.889,113.379c-2.474-0.162-5.251,1.676-4.976,3.489
				C274.604,115.683,276.176,114.582,277.889,113.379z M282.184,117.806c-2.551,1.125-2.46,3.683-3.526,5.486
				c-0.135,0.227,0.155,0.705,0.261,1.115C280.194,121.826,281.13,119.936,282.184,117.806z M298.101,108.52
				c1.032-0.422,1.925-0.786,3.064-1.252c-1.621-0.532-2.862-0.94-4.182-1.374c-0.129,1.01-0.236,1.823-0.34,2.636
				c0.13,0.018,0.259,0.035,0.391,0.053c0.141-0.627,0.28-1.253,0.42-1.881c0.155,0.005,0.311,0.01,0.465,0.015
				C297.976,107.28,298.031,107.844,298.101,108.52z M233.638,101.671c1.633-2.291,3.714-3.742,6.593-3.854
				C237.769,96.922,233.619,99.309,233.638,101.671z M279.111,119.121c-1.229-0.06-3.011,2.474-2.431,3.619
				c0.104,0.204,0.408,0.44,0.606,0.428c0.204-0.013,0.485-0.272,0.568-0.486C278.304,121.499,278.703,120.295,279.111,119.121z
				 M240.193,105.64c0.162,0.307,0.324,0.614,0.485,0.921c0.447-0.248,1.004-0.4,1.322-0.762c0.813-0.928,1.52-1.949,2.268-2.933
				c-0.101-0.111-0.203-0.221-0.305-0.332C242.707,103.57,241.45,104.604,240.193,105.64z M221.952,203.166
				c0.001-0.085,0.003-0.172,0.005-0.257c-2.75,0-5.5,0-8.25,0c-0.002,0.085-0.005,0.172-0.007,0.257
				C216.45,203.166,219.201,203.166,221.952,203.166z M295.587,100.261c-0.059,0.114-0.117,0.229-0.176,0.344
				c2.419,0.892,4.838,1.782,7.258,2.673c0.046-0.119,0.091-0.238,0.138-0.357c-1.071-0.444-2.141-0.887-3.21-1.331
				c0.025-0.088,0.052-0.176,0.076-0.264c0.534,0.085,1.067,0.17,1.603,0.255c-0.639-0.465-1.339-0.613-2.045-0.669
				c-0.506-0.04-1.046,0.149-1.533,0.051C296.978,100.815,296.291,100.503,295.587,100.261z M338.75,128.04
				c0.175,0.013,0.35,0.025,0.525,0.039c0.162-2.172,0.337-4.346,0.463-6.521c0.007-0.076-0.425-0.177-0.654-0.264
				c-0.081,0.236-0.236,0.473-0.236,0.708c0.003,0.517,0.143,1.034,0.126,1.548C338.924,125.048,338.828,126.542,338.75,128.04z
				 M82.078,164.147c0.111,0.022,0.222,0.045,0.333,0.068c0-2.319,0-4.638,0-6.955c-0.111,0-0.222-0.001-0.333-0.003
				C82.078,159.555,82.078,161.85,82.078,164.147z M325.336,109.7c0,2.352,0,4.261,0,6.17
				C326.202,113.936,326.636,112.017,325.336,109.7z M236.882,100.529c1.913-0.378,3.827-0.758,5.787-1.145
				C240.473,98.433,238.6,99.148,236.882,100.529z M208.129,205.535c1.36,0.809,5.561,0.739,6.323,0
				C212.412,205.535,210.353,205.535,208.129,205.535z M337.745,128.816c0.152,0.005,0.305,0.008,0.457,0.013
				c0-2.287,0-4.575,0-6.863c-0.152-0.01-0.305-0.021-0.457-0.033C337.745,124.227,337.745,126.522,337.745,128.816z
				 M334.724,143.135c1.128-1.05,2.19-2.124,1.546-3.954C334.121,139.967,335.907,142.105,334.724,143.135z M139.088,177.8
				c0-1.239,0-2.403,0-3.632C137.857,175.037,137.851,176.887,139.088,177.8z M359.404,96.642c0-0.137,0-0.275,0-0.412
				c-2.182,0-4.363,0-6.545,0c-0.003,0.137-0.003,0.275-0.006,0.412C355.035,96.642,357.219,96.642,359.404,96.642z M236.53,104.539
				c2.446,1.574,2.863,1.484,3.311-0.474c-0.521,0.074-1.041,0.146-1.56,0.22C237.781,104.357,237.281,104.43,236.53,104.539z
				 M184.391,201.36c0,0.152,0,0.305,0,0.458c1.702,0,3.405,0,5.107,0c0-0.153,0-0.306,0-0.458
				C187.795,201.36,186.093,201.36,184.391,201.36z M276.359,120.344c-0.119-0.152-0.239-0.307-0.359-0.459
				c-0.688,0.441-1.378,0.882-2.064,1.321c0.315,0.389,0.632,0.778,1.06,1.303C275.578,121.586,275.967,120.964,276.359,120.344z
				 M194.826,189.159c2.007,1.104,3.767,0.55,5.526,0C198.593,189.159,196.835,189.159,194.826,189.159z M296.529,113.359
				c-0.187-0.013-0.374-0.024-0.561-0.035c-0.226,1.595-0.452,3.189-0.68,4.784c0.177,0.022,0.354,0.042,0.528,0.063
				C296.054,116.567,296.292,114.964,296.529,113.359z M82.396,165.11c-0.155,0.001-0.31,0.001-0.464,0.003c0,1.797,0,3.597,0,5.392
				c0.155,0,0.31,0,0.464-0.001C82.396,168.706,82.396,166.907,82.396,165.11z M331.275,130.659
				c0.106,0.005,0.211,0.008,0.317,0.013c0-1.558,0-3.115,0-4.671c-0.106-0.003-0.211-0.007-0.317-0.01
				C331.275,127.547,331.275,129.102,331.275,130.659z"/>
			<path fill-rule="evenodd" clip-rule="evenodd" fill="#1885BB" d="M288.759,50.626c-5.855,2.312-6.757,1.04-6.912-1.686
				c-2.198,1.463-4.289,3.021-7.06,3.32c-1.871,0.201-3.895-0.373-4.707-1.805c-0.639-1.128-0.194-3.335,1.018-4.602
				c0.692-0.723,1.501-1.333,2.467-2.177c-2.272,0.457-4.185,0.904-6.118,1.213c-1.93,0.308-3.892,0.661-6.284-0.398
				c0.747-0.281,1.104-0.558,1.403-0.504c2.647,0.477,5.177-0.067,7.75-0.636c3.011-0.666,5.915-1.578,8.717-2.857
				c0.29-0.132,0.729,0.061,1.099,0.103c-0.105,0.495-0.05,1.129-0.342,1.463c-2.492,2.861-5.047,5.669-7.583,8.492
				c0.063,0.18,0.128,0.36,0.189,0.54c0.895,0,1.86,0.226,2.666-0.039c3.619-1.189,6.949-2.853,8.917-6.385
				c0.105-0.187,0.253-0.405,0.436-0.487c2.757-1.232,5.514-2.467,8.299-3.635c0.426-0.178,1.092-0.214,1.468-0.001
				c1.54,0.868,3.031,0.151,4.46-0.149c1.138-0.239,1.404,0.239,1.552,1.047c0.204,1.113-0.766,2.434-1.749,2.364
				c-1.008-0.072-1.096-0.808-0.943-1.63c0.015-0.075-0.093-0.173-0.246-0.438c-0.908,1.216-1.757,2.39-2.644,3.532
				c-1.617,2.082-3.455,4.023-4.821,6.256c-0.956,1.56-1.459,3.468-1.852,5.288c-0.823,3.811-2.765,6.663-6.35,8.31
				c-0.292,0.134-0.6,0.298-0.911,0.319c-2.028,0.136-4.058,0.295-6.09,0.336c-2.781,0.056-3.856-1.262-3.52-4.172
				c1.584-0.081,1.911,0.296,1.763,1.81c-0.031,0.323,0.401,1.004,0.524,0.982c1.1-0.197,2.355,0.702,3.346-0.669
				c0.356-0.493,1.661-0.205,2.234-0.654c1.613-1.263,3.318-2.537,4.528-4.15C285.383,56.372,286.929,53.539,288.759,50.626z
				 M295,42.515c-1.951-1.102-4.445-0.422-5.439,1.387c-1.106,2.01-2.162,4.049-3.371,6.328C290.281,48.821,292.3,45.395,295,42.515
				z"/>
			<path fill-rule="evenodd" clip-rule="evenodd" fill="#1885BB" d="M248.799,41.16c-1.661-0.398-2.912-0.697-3.75-0.897
				c0.215-0.368,0.517-0.885,0.824-1.411c2.473,1.68,5.238,0.854,7.871,0.952c1.805,0.066,3.633-0.355,5.433-0.255
				c3.334,0.186,6.318-0.928,9.296-2.136c0.619-0.251,1.246-0.716,1.578,0.139c0.126,0.321-0.327,0.922-0.604,1.336
				c-0.759,1.137-2.068,2.178-2.225,3.378c-0.193,1.482-1.259,0.674-1.522,1.423c-0.117-0.08-0.233-0.16-0.35-0.239
				c0-1.016,0-2.032,0-3.351c-0.86,0.157-1.51,0.353-2.167,0.383c-3.158,0.146-6.317,0.303-9.477,0.345
				c-2.123,0.027-2.056,1.812-2.834,2.928c0.074,0.173,0.147,0.345,0.22,0.518c1.092-0.262,2.213-0.438,3.267-0.807
				c1.123-0.393,2.166-1.011,3.28-1.432c0.318-0.121,0.767,0.104,1.155,0.17c-0.092,0.391-0.062,1.005-0.297,1.135
				c-1.605,0.884-2.036,2.471-2.626,3.996c-0.128,0.33-0.562,0.54-0.855,0.806c-0.238-0.264-0.521-0.499-0.703-0.795
				c-0.359-0.586-0.523-1.526-1.021-1.741c-0.859-0.373-1.909-0.335-2.883-0.4c-0.211-0.015-0.535,0.215-0.647,0.42
				c-0.875,1.591-1.712,3.205-2.714,5.105c0.654-0.084,1.288-0.348,1.762-0.174c0.428,0.157,0.68,0.793,1.009,1.218
				c-0.108,0.124-0.217,0.248-0.326,0.372c-1.148-0.218-2.297-0.616-3.445-0.611c-1.796,0.006-3.591,0.284-5.385,0.455
				c-0.104,0.01-0.206,0.14-0.298,0.128c-0.844-0.101-1.687-0.214-2.523-0.359c-0.035-0.007-0.044-0.525-0.006-0.533
				c0.724-0.159,1.453-0.359,2.188-0.386c1.64-0.06,2.98-1.141,3.689-2.597c0.512-1.049,1.48-1.867,2.179-2.835
				C246.852,44.078,247.748,42.703,248.799,41.16z"/>
			<path fill-rule="evenodd" clip-rule="evenodd" fill="#1885BB" d="M313.282,51.047c0.137,0.366,0.441,0.788,0.383,1.153
				c-0.046,0.293-0.551,0.751-0.817,0.728c-0.742-0.064-1.536-0.21-2.185-0.56c-1.715-0.928-3.118-0.49-4.052,0.48
				c-1.396-0.146-2.447-0.21-3.478-0.384c-0.425-0.072-0.808-0.382-1.209-0.583c0.416-0.242,0.872-0.739,1.244-0.683
				c1.757,0.27,2.943-0.536,3.955-1.801c2.308-2.886,4.612-5.775,7.072-8.858c-0.499,0.059-0.998-0.017-1.345,0.18
				c-2.376,1.348-4.966,1.5-7.592,1.417c-0.34-0.011-0.664-0.492-0.998-0.755c0.369-0.165,0.729-0.445,1.108-0.473
				c1.326-0.095,2.729,0.147,3.974-0.199c2.228-0.618,4.344-1.621,6.548-2.343c0.46-0.151,1.231,0.059,1.595,0.393
				c0.337,0.309,0.57,1.114,0.402,1.509c-0.457,1.073-1.08,2.099-1.771,3.045c-1.876,2.562-3.821,5.073-5.841,7.734
				C311.331,51.047,312.264,51.047,313.282,51.047z"/>
			<path fill-rule="evenodd" clip-rule="evenodd" fill="#1885BB" d="M251.781,74.766c-1.341-0.715-2.294-1.742-3.297-0.603
				c0.762,0.71,1.625,1.273,2.159,2.061c1.34,1.975-0.083,5.096-2.445,5.421c-1.038,0.143-2.144,0.21-3.16,0.008
				c-2.229-0.443-3.284-2.643-2.027-4.517c1.75-2.606,4.1-4.606,7.353-5.079c0.738-0.108,1.557,0.341,2.338,0.535
				C252.414,73.271,252.126,73.95,251.781,74.766z M245.416,80.592c1.842,0.063,2.38-0.659,3.447-4.455
				C247.003,75.941,245.416,77.943,245.416,80.592z"/>
			<path fill-rule="evenodd" clip-rule="evenodd" fill="#1885BB" d="M389.082,65.172c0.506,0.19,0.937,0.353,1.368,0.515
				c2.201,0.835,2.558,3.163,0.939,4.86c-1.345,1.412-3.05,1.638-4.726,1.733c-1.339,0.076-2.337-0.968-2.528-2.285
				c-0.078-0.544,0.648-1.203,1.008-1.809c0.201,0.042,0.405,0.083,0.606,0.124c0.275,0.843,0.551,1.686,0.859,2.619
				c0.787,0.275,1.394,0.116,1.789-0.881c0.211-0.528,0.826-0.879,1.135-1.386c0.301-0.492,0.443-1.081,0.654-1.627
				c-0.749-0.146-1.494-0.391-2.239-0.396c-0.354-0.002-0.682,0.542-1.073,0.676c-0.389,0.134-0.85,0.064-1.277,0.083
				c0.065-0.43-0.017-0.994,0.227-1.266c0.989-1.104,2.075-2.121,3.132-3.163c0.713-0.704,4.777-1.014,5.312-0.22
				c0.334,0.495,0.14,1.485-0.101,2.148c-0.078,0.212-1.222,0.329-1.617,0.078C391.322,64.194,390.255,64.104,389.082,65.172z"/>
			<path fill-rule="evenodd" clip-rule="evenodd" fill="#1885BB" d="M308.633,199.843c0.924-0.394,1.663-0.791,2.454-0.976
				c0.159-0.035,0.535,0.723,0.759,1.142c0.236,0.443,0.408,0.924,0.609,1.387c0.463-0.263,1.03-0.431,1.371-0.804
				c1.005-1.097,1.919-2.275,3.066-3.663c-0.788-0.081-1.238-0.275-1.494-0.129c-1.731,1.001-2.597-0.449-3.238-1.423
				c-0.266-0.405,0.519-1.881,1.183-2.432c0.904-0.749,3.806-0.016,4.784,1.018c-0.356,0.595-0.738,1.232-1.131,1.88
				c2.175,1.786,2.035,4.257-0.564,5.803C313.866,203.175,311.168,203.12,308.633,199.843z M313.333,194.404
				c0.729,0.658,1.115,1.003,1.498,1.349c0.447-0.628,0.895-1.253,1.345-1.881c-0.113-0.109-0.227-0.224-0.34-0.335
				C315.171,193.767,314.507,193.999,313.333,194.404z"/>
			<path fill-rule="evenodd" clip-rule="evenodd" fill="#1885BB" d="M381.73,70.481c0.522,0.276,1.161,0.613,1.799,0.949
				c-4.197,1.111-8.087,0.761-8.641-0.363c1.183-1.203,3.153,0.631,4.271-1.191c0.794-1.292,1.926-2.378,3.15-3.851
				c-2.259,0-4.161,0.007-6.064-0.033c-0.071-0.001-0.13-0.475-0.249-0.962c0.823,0,1.523-0.064,2.207,0.012
				c2.007,0.225,3.854-0.289,5.676-1.05c0.347-0.145,0.791-0.062,1.189-0.083c-0.029,0.434,0.084,0.949-0.11,1.286
				C383.902,67.017,382.771,68.796,381.73,70.481z"/>
			<path fill-rule="evenodd" clip-rule="evenodd" fill="#1885BB" d="M316.559,51.65c0.337-1.598,0.658-3.245,2.829-3.197
				c0.51,0.011,1.122,0.294,1.472,0.658c0.191,0.201,0.056,0.888-0.129,1.257C319.781,52.257,318.105,52.766,316.559,51.65z"/>
			<path fill-rule="evenodd" clip-rule="evenodd" fill="#1885BB" d="M300.203,48.378c0.026,2.026-0.943,3.126-2.298,3.095
				c-0.853-0.02-1.439-0.326-1.371-1.383c0.088-1.339,1.42-3.027,2.492-2.776C299.583,47.443,299.997,48.179,300.203,48.378z"/>
			<path fill-rule="evenodd" clip-rule="evenodd" fill="#1885BB" d="M279.383,37.505c-0.12-0.137-0.688-0.487-0.734-0.897
				c-0.114-0.999,1.38-2.212,2.508-2.044c0.392,0.058,0.985,0.548,1.021,0.89C282.275,36.396,280.881,37.537,279.383,37.505z"/>
			<path fill-rule="evenodd" clip-rule="evenodd" fill="#1885BB" d="M314.222,107.293c0.217,0.245,0.431,0.489,0.648,0.733
				c-0.056,0.099-0.114,0.197-0.169,0.295c-1.812-0.672-3.627-1.341-5.439-2.021c-0.742-0.279-0.836-0.637-0.084-1.052
				C310.857,105.929,312.54,106.612,314.222,107.293z"/>
			<path fill-rule="evenodd" clip-rule="evenodd" fill="#1885BB" d="M276.877,144.448c2.895-2.146,5.793-4.292,8.865-6.57
				c1.811,1.951-0.58,3.371-0.75,5.163c1.298,0.742,2.141-0.026,2.964-0.998c0.275-0.324,0.688-0.535,1.034-0.796
				c0.187,0.526,0.639,1.138,0.506,1.563c-0.337,1.066-0.94,2.049-1.531,3.265c-1.201-0.648-2.313-1.248-3.504-1.892
				c-0.08,0.196-0.145,0.381-0.224,0.556c-0.216,0.475,0.215,1.653,0.627,1.978c0.219,0.174,0.292,0.531,0.612,1.165
				c-2.794,0-5.319,0-8.306,0c1.548-1.768,4.531-0.799,4.646-3.559c-1.592,0.199-3.177,0.4-4.762,0.6
				C276.997,144.763,276.936,144.606,276.877,144.448z M280.283,143.148c0.091,0.144,0.182,0.288,0.272,0.434
				c1.138-0.22,2.426-0.22,2.349-2.217C282.03,141.958,281.157,142.552,280.283,143.148z"/>
			<path fill-rule="evenodd" clip-rule="evenodd" fill="#1885BB" d="M235.908,149.432c1.417,0.095,3.049-0.904,3.349-2.2
				c-0.345,0.052-0.647,0.077-0.938,0.148c-1.293,0.328-2.55-0.463-2.24-1.711c0.35-1.407,0.965-3.202,2.049-3.851
				c1.295-0.771,3.193-1.602,4.862-0.265c0.99,0.793,1.739,1.961,0.913,3.032c-1.706,2.213-2.991,4.984-5.924,5.892
				c-1.059,0.327-2.323,0.154-3.457-0.021c-0.344-0.052-0.768-0.868-0.792-1.352c-0.024-0.506,0.279-1.147,0.654-1.506
				c0.236-0.227,1.184-0.186,1.257-0.019C235.871,148.093,235.832,148.723,235.908,149.432z M238.304,145.96
				c0.065,0.118,0.13,0.238,0.195,0.358c0.649-0.25,1.504-0.321,1.9-0.786c0.67-0.786,1.051-1.82,1.553-2.747
				c-0.443-0.12-1.177-0.461-1.284-0.321C239.812,143.579,239.076,144.783,238.304,145.96z"/>
			<path fill-rule="evenodd" clip-rule="evenodd" fill="#1885BB" d="M192.169,169.157c-1.989-0.009-2.969-0.775-3.848-3.287
				c-0.502-1.435,0.138-2.561,1.305-3.465c0.254-0.198,0.39-0.629,0.455-0.978c0.384-2.06,3.252-3.528,5.158-2.627
				c0.956,0.452,1.568,1.057,1.537,2.251c-0.028,1.078,0.122,2.172,0.306,3.238C197.46,166.476,194.898,169.563,192.169,169.157z
				 M190.303,163.442c-0.9,2.71-0.721,3.512,1.057,4.018c0.818,0.231,2.032,0.378,2.583-0.055c0.883-0.692,1.365-1.898,2.118-3.042
				C193.891,164.015,192.137,163.735,190.303,163.442z M195.351,161.481c0.028-2.046-1.852-2.104-4.023-0.461
				C192.768,161.186,194.052,161.332,195.351,161.481z"/>
			<path fill-rule="evenodd" clip-rule="evenodd" fill="#1885BB" d="M264.047,149.404c-2.382,2.119-4.434,3.944-6.526,5.805
				c1.822,1.052,3.053-1.629,5.289-0.277c-1.009,0.838-1.723,1.594-2.586,2.093c-0.619,0.359-1.437,0.379-2.168,0.536
				c-0.968,0.209-1.935,0.427-2.91,0.597c-0.42,0.073-0.86,0.044-1.291,0.06c0.12-0.45,0.102-1.028,0.383-1.328
				c1.792-1.916,3.661-3.761,5.475-5.655c0.183-0.192,0.168-0.572,0.247-0.867c-0.123-0.097-0.245-0.194-0.367-0.29
				c-0.508,0.514-0.989,1.057-1.533,1.528c-0.404,0.351-0.864,0.776-1.347,0.847c-0.314,0.045-1.044-0.548-1.008-0.747
				c0.097-0.525,0.437-1.062,0.812-1.471c1.466-1.591,3.43-1.765,5.413-1.669C262.533,148.594,263.118,149.021,264.047,149.404z"/>
			<path fill-rule="evenodd" clip-rule="evenodd" fill="#1885BB" d="M211.866,180.155c2.711,0,5.423,0,8.136,0
				c-0.011,0.197-0.022,0.396-0.035,0.593C217.226,180.87,214.493,180.85,211.866,180.155z"/>
			<path fill-rule="evenodd" clip-rule="evenodd" fill="#1885BB" d="M218.84,178.842c-1.898-0.119-3.795-0.241-5.693-0.362
				c-0.05-0.135-0.101-0.27-0.15-0.405c0.347-0.191,0.708-0.57,1.038-0.545c1.687,0.133,3.365,0.37,5.047,0.569
				C219.001,178.346,218.92,178.594,218.84,178.842z"/>
			<path fill-rule="evenodd" clip-rule="evenodd" fill="#1885BB" d="M217.33,176.135c-1.51,0-3.021,0-4.531,0
				c-0.011-0.189-0.023-0.379-0.034-0.569c1.447-0.779,3.006-0.082,4.518-0.005C217.299,175.753,217.314,175.944,217.33,176.135z"/>
			<path fill-rule="evenodd" clip-rule="evenodd" fill="#1885BB" d="M206.092,171.481c-1.438,0-2.423,0.022-3.404-0.02
				c-0.201-0.009-0.452-0.224-0.562-0.412c-0.055-0.094,0.173-0.506,0.243-0.497C203.48,170.671,204.754,169.97,206.092,171.481z"/>
			<path fill-rule="evenodd" clip-rule="evenodd" fill="#1885BB" d="M213.604,172.725c-1.368,1.154-2.548,0.836-3.762,0
				C210.992,172.725,212.141,172.725,213.604,172.725z"/>
			<path fill-rule="evenodd" clip-rule="evenodd" fill="#1885BB" d="M370.191,131.92c0.288,0.102,0.574,0.271,0.872,0.298
				c2.344,0.218,3.082,1.592,2.551,4.003c-0.46,2.104-1.728,3.065-3.604,3.715c-1.779,0.613-3.138-0.152-4.217-1.264
				c-1.093-1.122-0.513-2.346,0.194-3.651c1.303-2.407,2.998-4.371,5.307-5.784c0.524-0.321,1.286-0.454,1.896-0.363
				c0.435,0.064,0.794,0.645,1.189,0.995c-0.509,0.512-0.57,1.523-1.809,1.167c-0.71-0.204-1.591,0.177-2.396,0.293
				C370.181,131.526,370.184,131.721,370.191,131.92z M367.786,138.762c1.698,0.129,3.936-3.086,3.722-5.155
				C369.747,133.959,367.951,136.406,367.786,138.762z"/>
			<path fill-rule="evenodd" clip-rule="evenodd" fill="#1885BB" d="M394.17,122.089c1.838,0.091,3.407,0.167,5.047,0.246
				c-0.434,1.211-0.937,1.592-2.074,1.199c-2.13-0.735-4.12-0.011-6.178,0.224c-1.618,0.184-3.352,0.693-4.84-0.883
				c1.887-0.103,3.773-0.203,5.336-0.287c1.023-1.627,1.922-3.054,2.787-4.431c-1.916,0.185-3.873,0.389-5.835,0.548
				c-0.492,0.038-0.998-0.039-1.49-0.12c-0.065-0.014-0.13-0.528-0.098-0.54c0.489-0.177,0.985-0.391,1.494-0.439
				c2.85-0.264,5.767-0.147,8.34-1.763c0.26-0.162,0.938-0.057,1.115,0.167c0.179,0.22,0.101,0.839-0.094,1.129
				C396.598,118.747,395.445,120.307,394.17,122.089z"/>
			<path fill-rule="evenodd" clip-rule="evenodd" fill="#1885BB" d="M154.035,177.581c1.615,0,2.987,0,4.464,0
				C157.315,178.751,155.209,178.8,154.035,177.581z"/>
			<path fill-rule="evenodd" clip-rule="evenodd" fill="#1885BB" d="M329.486,80.196c-0.208,2.887-2.668,6.598-6.897,5.057
				c-0.609-0.222-1.274-1.162-1.343-1.829c-0.185-1.773,3.737-6.451,5.433-6.744c1.125-0.195,2.661,1.271,2.801,2.686
				C329.508,79.64,329.482,79.92,329.486,80.196z M323.878,84.227c1.523-0.024,3.837-3.752,3.747-5.828
				C326.299,78.731,324.004,82.235,323.878,84.227z"/>
			<path fill-rule="evenodd" clip-rule="evenodd" fill="#1885BB" d="M311.532,85.504c2.819,1.019,4.039-0.592,5.086-2.679
				c0.379-0.751,1.173-1.292,1.86-2.015c-1.903,0.313-3.666,0.592-5.427,0.901c-1.011,0.178-1.504-0.177-1.49-1.314
				c3.062,0.16,5.951-0.183,8.612-1.702c0.344-0.194,0.855-0.085,1.293-0.116c-0.078,0.416-0.035,0.912-0.249,1.238
				c-1.135,1.717-2.331,3.392-3.647,5.287c0.795-0.039,1.527-0.133,2.25-0.095c0.911,0.049,1.575,0.392,1.342,1.224
				c-2.688,0.264-5.192,0.549-7.705,0.73C312.689,87.017,311.567,87.364,311.532,85.504z"/>
			<path fill-rule="evenodd" clip-rule="evenodd" fill="#1885BB" d="M115.943,185.341c0-3.821,0-7.643,0-11.466
				c0.195,0.008,0.391,0.015,0.586,0.022c0.03,3.846,0.16,7.696-0.085,11.534C116.277,185.402,116.11,185.37,115.943,185.341z"/>
			<path fill-rule="evenodd" clip-rule="evenodd" fill="#1885BB" d="M118.438,176.219c0,2.483,0,4.966,0,7.445
				C117.359,183.131,117.227,179.908,118.438,176.219z"/>
			<path fill-rule="evenodd" clip-rule="evenodd" fill="#1885BB" d="M120.46,178.251c1.037,1.45,0.853,4.748,0,5.527
				C120.46,181.895,120.46,180.074,120.46,178.251z"/>
			<path fill-rule="evenodd" clip-rule="evenodd" fill="#1885BB" d="M123.314,184.035c0-1.375-0.019-2.747,0.029-4.12
				c0.005-0.136,0.404-0.298,0.644-0.368c0.09-0.025,0.362,0.184,0.357,0.274c-0.089,1.413-0.21,2.826-0.323,4.239
				C123.786,184.051,123.55,184.043,123.314,184.035z"/>
			<path fill-rule="evenodd" clip-rule="evenodd" fill="#1885BB" d="M127.818,181.107c0,1.496,0,2.869,0,4.238
				c-0.157,0.046-0.314,0.091-0.473,0.135c-0.153-0.56-0.481-1.138-0.42-1.673C127.026,182.92,126.277,181.689,127.818,181.107z"/>
			<path fill-rule="evenodd" clip-rule="evenodd" fill="#1885BB" d="M130.771,187.649c-1.267-0.896-0.906-1.884-0.731-2.795
				c0.026-0.143,0.429-0.298,0.653-0.291c0.161,0.005,0.457,0.283,0.446,0.418C131.064,185.807,130.92,186.628,130.771,187.649z"/>
			<path fill-rule="evenodd" clip-rule="evenodd" fill="#1885BB" d="M373.254,93.814c-0.781-0.744-1.31-1.246-1.835-1.749
				c0.697-0.572,1.326-1.358,2.123-1.608c0.312-0.097,1.332,0.979,1.403,1.593C374.998,92.495,374.019,93.06,373.254,93.814z"/>
			<path fill-rule="evenodd" clip-rule="evenodd" fill="#1885BB" d="M330.539,103.835c-2.161,0.695-3.666,2.851-6.327,2.453
				c2.02-1.029,4.042-2.058,6.065-3.087C330.364,103.411,330.452,103.623,330.539,103.835z"/>
			<path fill-rule="evenodd" clip-rule="evenodd" fill="#1885BB" d="M274.771,183.084c-9.646,0-19.292,0-29.482,0
				c0.575-0.501,0.831-0.918,1.088-0.918c5.39-0.006,10.78,0.047,16.171,0.061c2.461,0.006,4.922-0.049,7.383-0.066
				c1.624-0.012,3.246-0.002,4.87-0.002C274.791,182.466,274.781,182.774,274.771,183.084z"/>
			<path fill-rule="evenodd" clip-rule="evenodd" fill="#1885BB" d="M251.119,180.598c7.029,0,14.058,0,21.086,0
				c-0.005,0.166-0.009,0.333-0.015,0.5c-7.022,0-14.045,0-21.068,0C251.122,180.931,251.121,180.764,251.119,180.598z"/>
			<path fill-rule="evenodd" clip-rule="evenodd" fill="#1885BB" d="M259.05,178.037c3.461,0,6.923,0,10.68,0
				C268.373,179.069,261.825,179.025,259.05,178.037z"/>
			<path fill-rule="evenodd" clip-rule="evenodd" fill="#1885BB" d="M264.344,175.915c2.314,0,4.254,0,6.236,0
				C270.09,177.096,266.185,177.187,264.344,175.915z"/>
			<path fill-rule="evenodd" clip-rule="evenodd" fill="#1885BB" d="M271.708,173.821c1.086,0,2.174-0.021,3.258,0.018
				c0.203,0.008,0.396,0.25,0.593,0.385c-0.136,0.188-0.276,0.544-0.409,0.541c-1.171-0.024-2.339-0.112-3.506-0.182
				C271.664,174.33,271.685,174.074,271.708,173.821z"/>
			<path fill-rule="evenodd" clip-rule="evenodd" fill="#1885BB" d="M283.513,172.809c-1.066,0-2.135,0-3.203,0
				c0-0.199,0.002-0.398,0.004-0.6c1.064-0.062,2.129-0.121,3.195-0.182C283.511,172.288,283.513,172.551,283.513,172.809z"/>
			<path fill-rule="evenodd" clip-rule="evenodd" fill="#1885BB" d="M272.828,191.483c0.978,0.875,1.112,6.609,0,8.154
				C272.828,196.748,272.828,194.157,272.828,191.483z"/>
			<path fill-rule="evenodd" clip-rule="evenodd" fill="#1885BB" d="M276.454,196.125c-1.014-0.524-1.211-2.528-0.628-4.952
				C276.703,191.589,276.855,192.728,276.454,196.125z"/>
			<path fill-rule="evenodd" clip-rule="evenodd" fill="#1885BB" d="M279.471,189.431c0,1.472,0,2.85,0,4.269
				C278.317,192.754,278.282,190.417,279.471,189.431z"/>
			<path fill-rule="evenodd" clip-rule="evenodd" fill="#1885BB" d="M342.221,124.735c0-1.438,0-2.877,0-4.314
				c0.227,0.008,0.453,0.017,0.681,0.024c-0.094,1.442-0.188,2.885-0.282,4.327C342.487,124.76,342.354,124.748,342.221,124.735z"/>
			<path fill-rule="evenodd" clip-rule="evenodd" fill="#1885BB" d="M299.92,113.121c-0.168,1.69-0.335,3.381-0.502,5.071
				c-0.189-0.013-0.379-0.027-0.567-0.04c0.11-1.676,0.221-3.354,0.331-5.029C299.428,113.123,299.674,113.123,299.92,113.121z"/>
			<path fill-rule="evenodd" clip-rule="evenodd" fill="#1885BB" d="M301.485,113.415c-0.086,1.16-0.174,2.32-0.261,3.48
				c-0.238-0.019-0.477-0.038-0.715-0.06c0.125-1.159,0.249-2.315,0.374-3.473C301.084,113.381,301.286,113.398,301.485,113.415z"/>
			<path fill-rule="evenodd" clip-rule="evenodd" fill="#1885BB" d="M294.553,101.583c3.457,1.259,6.914,2.52,10.372,3.779
				c-0.071,0.2-0.139,0.399-0.21,0.599c-3.483-1.228-6.966-2.454-10.451-3.682C294.362,102.047,294.456,101.815,294.553,101.583z"/>
		</g>
	</g>
</g>
</svg>
